<svg xmlns="http://www.w3.org/2000/svg" width="1192" height="744" viewBox="0 0 1192 744">
<rect width="100%" height="100%" rx="8" fill="#0d1117"/>
<g font-family="DejaVu Sans Mono, Menlo, Consolas, monospace" font-size="14" xml:space="preserve">
<text x="12.0" y="278" fill="#c9d1d9">                   </text>
<text x="171.6" y="278" fill="#0000af" font-weight="bold">⢀⣴⡿⠿⠷⢦⡀</text>
<text x="230.4" y="278" fill="#c9d1d9">            </text>
<text x="331.2" y="278" fill="#0000af" font-weight="bold">⢀⣀⣀⣀</text>
<text x="364.8" y="278" fill="#c9d1d9">                           </text>
<text x="591.6" y="278" fill="#00af00">⢠⡖⠉⠉⠲⣄⣀⣤⣴⣶⣶⣶⣶⣶⣤⣄⣀⢀⡤⠖⠒⠐⢦</text>
<text x="784.8" y="278" fill="#c9d1d9">                                </text>
<text x="1053.6" y="278" fill="#ffff5f">⣴⡶⠿⢿⣶⣄</text>
<text x="1104.0" y="278" fill="#c9d1d9">  </text>
<text x="1120.8" y="278" fill="#ffff5f">⣀⣀⣀⣀⣀</text>
<text x="12.0" y="296" fill="#c9d1d9">                   </text>
<text x="171.6" y="296" fill="#0000af" font-weight="bold">⢸⡇</text>
<text x="188.4" y="296" fill="#c9d1d9">    </text>
<text x="222.0" y="296" fill="#0000af" font-weight="bold">⣽⣶⣾⣿⣿⣿⣿⣷⣶⣤⣀⣀⣴⠿⠛⠛⢿⣷⡀</text>
<text x="381.6" y="296" fill="#c9d1d9">                         </text>
<text x="591.6" y="296" fill="#00af00">⠘⡇</text>
<text x="608.4" y="296" fill="#c9d1d9">  </text>
<text x="625.2" y="296" fill="#00af00">⢀⣿⣿⣿⣿⣿⣿⣿⣿⣿⣿⣿⣿⣿⣧⡀</text>
<text x="759.6" y="296" fill="#c9d1d9">  </text>
<text x="776.4" y="296" fill="#00af00">⢸</text>
<text x="784.8" y="296" fill="#c9d1d9">                               </text>
<text x="1045.2" y="296" fill="#ffff5f">⢠⡏</text>
<text x="1062.0" y="296" fill="#c9d1d9">   </text>
<text x="1087.2" y="296" fill="#ffff5f">⣨⣿⣿⣿⣿⣿⣿⣿⣿⣿⣷</text>
<text x="12.0" y="314" fill="#c9d1d9">                   </text>
<text x="171.6" y="314" fill="#0000af" font-weight="bold">⠘⣷⡀</text>
<text x="196.8" y="314" fill="#c9d1d9"> </text>
<text x="205.2" y="314" fill="#0000af" font-weight="bold">⢀⣾⣿⣿⣿⣿⣿⣿⣿⣿⣿⣿⣿⣿⣿⡄</text>
<text x="339.6" y="314" fill="#c9d1d9">   </text>
<text x="364.8" y="314" fill="#0000af" font-weight="bold">⣿⡇</text>
<text x="381.6" y="314" fill="#c9d1d9">                          </text>
<text x="600.0" y="314" fill="#00af00">⠙⢦⣤⣿⣿⣿⡟⠻⣿⣿⣿⣿⣿⣿⠉⢻⣿⣿⣿⣴⠶⠃</text>
<text x="784.8" y="314" fill="#c9d1d9">                               </text>
<text x="1045.2" y="314" fill="#ffff5f">⠈⠳⡄</text>
<text x="1070.4" y="314" fill="#c9d1d9"> </text>
<text x="1078.8" y="314" fill="#ffff5f">⣰⣿⣿⣿⠿⢿⣿⣿⣿⣿⠿⢿</text>
<text x="12.0" y="332" fill="#c9d1d9">                    </text>
<text x="180.0" y="332" fill="#0000af" font-weight="bold">⠘⠻⠶⣾⣿⣿⣿⠟⢻⣿⣿⣿⣿⣿⣿⣿⣿⣿⣿⣤⣴⣾⠏</text>
<text x="373.2" y="332" fill="#c9d1d9">                             </text>
<text x="616.8" y="332" fill="#00af00">⠹⣿⣿⣿⣷⣶⣿⠉</text>
<text x="684.0" y="332" fill="#c9d1d9">  </text>
<text x="700.8" y="332" fill="#00af00">⠉⣿⣿⣿⣿⣿⣿</text>
<text x="759.6" y="332" fill="#c9d1d9">                                    </text>
<text x="1062.0" y="332" fill="#ffff5f">⠈⠻⣿⣿⣿⣿⣶⣾⠿⠛⠿⣿⣤⣾</text>
<text x="12.0" y="350" fill="#c9d1d9">                       </text>
<text x="205.2" y="350" fill="#0000af" font-weight="bold">⢹⣿⣿⣿⣶⣾⡟⠉⠉⠙⢿⣤⣽⣿⣿⣿⠛⠉</text>
<text x="356.4" y="350" fill="#c9d1d9">                         </text>
<text x="566.4" y="350" fill="#00af00">⣀⡀</text>
<text x="583.2" y="350" fill="#c9d1d9">     </text>
<text x="625.2" y="350" fill="#00af00">⢻⣿⣿⣿⡿⣿⣶⣶⣶⣾⡿⢿⣿⣿⣿⠋</text>
<text x="759.6" y="350" fill="#c9d1d9">                                      </text>
<text x="1078.8" y="350" fill="#ffff5f">⠻⣿⣿⣿⣿⣿⣤⣤⣤⣼⣿⣿</text>
<text x="12.0" y="368" fill="#c9d1d9">                     </text>
<text x="188.4" y="368" fill="#ffff5f" font-weight="bold">⣀⣴⣄⡀</text>
<text x="222.0" y="368" fill="#0000af" font-weight="bold">⠿⢿⡿⠿⠿⠿⠶⣶⣿⢿⣿⣿⣿⠏</text>
<text x="339.6" y="368" fill="#c9d1d9">                       </text>
<text x="532.8" y="368" fill="#00af00">⢀⣴⣿⣿⣿⣿⣿⠃</text>
<text x="600.0" y="368" fill="#c9d1d9"> </text>
<text x="608.4" y="368" fill="#0000af">⠺⢿⣦⣀⣀</text>
<text x="650.4" y="368" fill="#00af00">⠙⢃</text>
<text x="667.2" y="368" fill="#c9d1d9">      </text>
<text x="717.6" y="368" fill="#00af00">⣸⡿⠛⠁</text>
<text x="751.2" y="368" fill="#c9d1d9"> </text>
<text x="759.6" y="368" fill="#00af00">⢀⣀⣤⡶⠒⠋⠉⠻⣦</text>
<text x="835.2" y="368" fill="#c9d1d9">                            </text>
<text x="1070.4" y="368" fill="#5fafff">⢀⣴⣤⡀</text>
<text x="1104.0" y="368" fill="#ffff5f">⢻⣇⠈⠉</text>
<text x="1137.6" y="368" fill="#c9d1d9"> </text>
<text x="1146.0" y="368" fill="#ffff5f">⠉⠁⣰⣿</text>
<text x="12.0" y="386" fill="#c9d1d9">                 </text>
<text x="154.8" y="386" fill="#0000af" font-weight="bold">⢀⣤⡾</text>
<text x="180.0" y="386" fill="#c9d1d9"> </text>
<text x="188.4" y="386" fill="#ffff5f" font-weight="bold">⠸⣿⣿⣿⡆</text>
<text x="230.4" y="386" fill="#0000af" font-weight="bold">⢸⣷</text>
<text x="247.2" y="386" fill="#c9d1d9">     </text>
<text x="289.2" y="386" fill="#0000af" font-weight="bold">⢠⣿⠟⠉⠁</text>
<text x="331.2" y="386" fill="#c9d1d9">                       </text>
<text x="524.4" y="386" fill="#00af00">⢀⣾⣿⣿⣿⣿⣿⣿⣿⡿</text>
<text x="608.4" y="386" fill="#c9d1d9"> </text>
<text x="616.8" y="386" fill="#0000af">⣼⣿⣿⣿⣇</text>
<text x="658.8" y="386" fill="#00af00">⠘⣷⣄⣀⣀⣠⣶⠟</text>
<text x="726.0" y="386" fill="#0000af">⣀⡀</text>
<text x="742.8" y="386" fill="#c9d1d9"> </text>
<text x="751.2" y="386" fill="#00af00">⣴⣿⡟⠋</text>
<text x="784.8" y="386" fill="#c9d1d9">    </text>
<text x="818.4" y="386" fill="#00af00">⢀⠏</text>
<text x="835.2" y="386" fill="#c9d1d9">                  </text>
<text x="986.4" y="386" fill="#ffff5f">⢀⣠⣤⣴⣶⣤⣤</text>
<text x="1045.2" y="386" fill="#c9d1d9">  </text>
<text x="1062.0" y="386" fill="#5fafff">⠘⠻⣿⣿⣧</text>
<text x="1104.0" y="386" fill="#ffff5f">⠘⣿⣄</text>
<text x="1129.2" y="386" fill="#c9d1d9">  </text>
<text x="1146.0" y="386" fill="#ffff5f">⢀⣼⡿⠃</text>
<text x="12.0" y="404" fill="#c9d1d9">                </text>
<text x="146.4" y="404" fill="#0000af" font-weight="bold">⢠⣾⣿⣧</text>
<text x="180.0" y="404" fill="#c9d1d9"> </text>
<text x="188.4" y="404" fill="#ffff5f" font-weight="bold">⠶⣿⣿⣿⣿⡆</text>
<text x="238.8" y="404" fill="#0000af" font-weight="bold">⠹⣷⣤⣀⣀⣤⡿⠋</text>
<text x="306.0" y="404" fill="#c9d1d9">    </text>
<text x="339.6" y="404" fill="#0000af" font-weight="bold">⣀⣤⣶⣶⣆</text>
<text x="381.6" y="404" fill="#c9d1d9">                 </text>
<text x="524.4" y="404" fill="#00af00">⣾⣿⣿⣿⣿⣿⣿⣿⣿⡇</text>
<text x="608.4" y="404" fill="#0000af">⠈⠉⠉⣿⣿⣿⣦⡀</text>
<text x="675.6" y="404" fill="#00af00">⠛⠛⠛⠋</text>
<text x="709.2" y="404" fill="#0000af">⣀⣼⡟⠃</text>
<text x="742.8" y="404" fill="#00af00">⢀⣽⣿⣶⣶⣶⣶⣶⠟⠋</text>
<text x="826.8" y="404" fill="#c9d1d9">                  </text>
<text x="978.0" y="404" fill="#ffff5f">⢠⣿⣿⣿⣿⣿⣿⣿⣿⡟</text>
<text x="1062.0" y="404" fill="#c9d1d9"> </text>
<text x="1070.4" y="404" fill="#5fafff">⠘⠿⠿⣿⣷⣄</text>
<text x="1120.8" y="404" fill="#ffff5f">⠻⠿⠾⠿⠋</text>
<text x="1162.8" y="404" fill="#5fafff">⣀⣼</text>
<text x="12.0" y="422" fill="#c9d1d9">               </text>
<text x="138.0" y="422" fill="#0000af" font-weight="bold">⣰⣿⣿⣿⣿⣷⣦</text>
<text x="196.8" y="422" fill="#ffff5f" font-weight="bold">⠈⣿⠟⠉⠛</text>
<text x="238.8" y="422" fill="#0000af" font-weight="bold">⠠⣬⣝⡉⠉⠁</text>
<text x="289.2" y="422" fill="#c9d1d9">   </text>
<text x="314.4" y="422" fill="#0000af" font-weight="bold">⢀⣤⣾⣿⣿⣿⣿⣿</text>
<text x="381.6" y="422" fill="#c9d1d9">             </text>
<text x="490.8" y="422" fill="#00af00">⢀⣠⣤⣴⣿⣿⣿⣿⡿⠁</text>
<text x="574.8" y="422" fill="#c9d1d9">  </text>
<text x="591.6" y="422" fill="#00af00">⠈⠉⠉⠁</text>
<text x="625.2" y="422" fill="#c9d1d9"> </text>
<text x="633.6" y="422" fill="#0000af">⠿⣿⣿⣿⣿⣶⣶⣶⣿⣿⠿⡇</text>
<text x="734.4" y="422" fill="#c9d1d9"> </text>
<text x="742.8" y="422" fill="#00af00">⢹⣿⣿⡿⠿⠛⠉⠁</text>
<text x="810.0" y="422" fill="#c9d1d9">                    </text>
<text x="978.0" y="422" fill="#ffff5f">⢸⣿⣿⣿⣿⣿⣿⣿⣿⣶⣶⡦</text>
<text x="1078.8" y="422" fill="#5fafff">⢀⣴⣿⣿⣿⣷⣶⣶⣶⣾⣿⣿</text>
<text x="12.0" y="440" fill="#c9d1d9">        </text>
<text x="79.2" y="440" fill="#0000af" font-weight="bold">⣠⣤⣤⣀⣤⣤⣾⣿⣿⣿⣿⣿⣿⣿</text>
<text x="196.8" y="440" fill="#c9d1d9"> </text>
<text x="205.2" y="440" fill="#ffff5f" font-weight="bold">⠁</text>
<text x="213.6" y="440" fill="#0000af" font-weight="bold">⢠⣷⣦⣤⣽⣿⣿⣿⣿⣿⣿⣿⣿⣿⣿⣿⣿⣿⡿⠃</text>
<text x="381.6" y="440" fill="#c9d1d9">           </text>
<text x="474.0" y="440" fill="#00af00">⣠⣶⣿⣿⣿⣿⣿⣿⡿⠋</text>
<text x="558.0" y="440" fill="#c9d1d9">          </text>
<text x="642.0" y="440" fill="#0000af">⣿⣿⣿⣿⣿⣿⣿⠿⣿</text>
<text x="717.6" y="440" fill="#c9d1d9"> </text>
<text x="726.0" y="440" fill="#00af00">⢀⣀⠈⠉⠁</text>
<text x="768.0" y="440" fill="#c9d1d9">                         </text>
<text x="978.0" y="440" fill="#ffff5f">⢸⣿⣿⣿⣿⠋</text>
<text x="1028.4" y="440" fill="#c9d1d9">   </text>
<text x="1053.6" y="440" fill="#ffff5f">⠈⠉⣀⣀</text>
<text x="1087.2" y="440" fill="#5fafff">⠉⢛⣿⣿⣿⣿⣿⣿⣿⡟⠋</text>
<text x="12.0" y="458" fill="#c9d1d9">       </text>
<text x="70.8" y="458" fill="#0000af" font-weight="bold">⣼⡁</text>
<text x="87.6" y="458" fill="#c9d1d9">  </text>
<text x="104.4" y="458" fill="#0000af" font-weight="bold">⠙⠻⢿⣿⣿⣿⣿⣿⣿⠟⠁</text>
<text x="196.8" y="458" fill="#c9d1d9">  </text>
<text x="213.6" y="458" fill="#0000af" font-weight="bold">⠛⠻⠿⣿⣿⣿⣿⣿⣿⣿⣿⣿⣿⣿⣿⣿⠟⠋</text>
<text x="364.8" y="458" fill="#c9d1d9">      </text>
<text x="415.2" y="458" fill="#0000af" font-weight="bold">⢀⣶⣦</text>
<text x="440.4" y="458" fill="#c9d1d9">    </text>
<text x="474.0" y="458" fill="#00af00">⢿⣿⣿⣿⣿⡿⠿⠋</text>
<text x="541.2" y="458" fill="#c9d1d9">         </text>
<text x="616.8" y="458" fill="#00af00">⣸⣿</text>
<text x="633.6" y="458" fill="#c9d1d9"> </text>
<text x="642.0" y="458" fill="#0000af">⠙⠁⠘⢿</text>
<text x="675.6" y="458" fill="#c9d1d9"> </text>
<text x="684.0" y="458" fill="#0000af">⠹⣿</text>
<text x="700.8" y="458" fill="#c9d1d9"> </text>
<text x="709.2" y="458" fill="#00af00">⢀</text>
<text x="717.6" y="458" fill="#c9d1d9"> </text>
<text x="726.0" y="458" fill="#00af00">⢸⣿</text>
<text x="742.8" y="458" fill="#c9d1d9">                            </text>
<text x="978.0" y="458" fill="#ffff5f">⢸⣿⣿⡿⠁</text>
<text x="1020.0" y="458" fill="#c9d1d9">    </text>
<text x="1053.6" y="458" fill="#ffff5f">⢀⣼⣿⣿⠃</text>
<text x="1095.6" y="458" fill="#5fafff">⠈⠉⠉⢿⠿⢿⠟⠉⠓</text>
<text x="12.0" y="476" fill="#c9d1d9">       </text>
<text x="70.8" y="476" fill="#0000af" font-weight="bold">⠻⢧⣤⣀⣀⣀⣀⣉⣹⣿⡿⠟⠁</text>
<text x="180.0" y="476" fill="#c9d1d9">  </text>
<text x="196.8" y="476" fill="#0000af" font-weight="bold">⢠⣶⣀⣤⡀</text>
<text x="238.8" y="476" fill="#c9d1d9"> </text>
<text x="247.2" y="476" fill="#0000af" font-weight="bold">⠈⢉⣛⣛⣛⣛⠛⠛⠛⠋⠉</text>
<text x="339.6" y="476" fill="#c9d1d9">        </text>
<text x="406.8" y="476" fill="#0000af" font-weight="bold">⣰⣿⣿⡟</text>
<text x="440.4" y="476" fill="#c9d1d9">     </text>
<text x="482.4" y="476" fill="#00af00">⠈⠉⠉⠁</text>
<text x="516.0" y="476" fill="#c9d1d9">          </text>
<text x="600.0" y="476" fill="#00af00">⢠⣾⣿⣿⣄⣀⣾⣧⡀⢠⣦</text>
<text x="692.4" y="476" fill="#0000af">⠙</text>
<text x="700.8" y="476" fill="#c9d1d9"> </text>
<text x="709.2" y="476" fill="#00af00">⣼⣿⣾⣿</text>
<text x="742.8" y="476" fill="#c9d1d9">                       </text>
<text x="936.0" y="476" fill="#ffff5f">⣠⣴⣶⣶⣶⣾⣿⣿⠃</text>
<text x="1011.6" y="476" fill="#c9d1d9">    </text>
<text x="1045.2" y="476" fill="#ffff5f">⢀⣾⣿⣿⣿⣤⣴⣿⡆</text>
<text x="1120.8" y="476" fill="#c9d1d9"> </text>
<text x="1129.2" y="476" fill="#ffff5f">⢀</text>
<text x="1137.6" y="476" fill="#5fafff">⠘⠂</text>
<text x="1154.4" y="476" fill="#ffff5f">⢰⣄⡀</text>
<text x="12.0" y="494" fill="#c9d1d9">         </text>
<text x="87.6" y="494" fill="#0000af" font-weight="bold">⠈⠉⠛⠻⠿⠿⠟⠉</text>
<text x="154.8" y="494" fill="#c9d1d9">     </text>
<text x="196.8" y="494" fill="#0000af" font-weight="bold">⣸⣿⣿⣿⣿⣶⣤⣸⣿⡟⢋⣁⣤⣶⣶⣶⣶⣤⣤⣀⣀⡀⢀⣠⣾⣿⣿⡟</text>
<text x="432.0" y="494" fill="#c9d1d9">                   </text>
<text x="591.6" y="494" fill="#00af00">⢀⣾⣿⣿⣿⣿⣿⣿⣿⣷⣼⣿⣧</text>
<text x="700.8" y="494" fill="#c9d1d9"> </text>
<text x="709.2" y="494" fill="#00af00">⣿⣿⣿⣿</text>
<text x="742.8" y="494" fill="#c9d1d9">                       </text>
<text x="936.0" y="494" fill="#ffff5f">⣿⣿⣿⣿⣿⣿⣿⠛</text>
<text x="1003.2" y="494" fill="#c9d1d9">     </text>
<text x="1045.2" y="494" fill="#ffff5f">⣼⣿⣿⣿⣿⣿⣿⣿⣿⣄⣿⣆</text>
<text x="1146.0" y="494" fill="#c9d1d9"> </text>
<text x="1154.4" y="494" fill="#ffff5f">⢸⣿⣿</text>
<text x="12.0" y="512" fill="#c9d1d9">                      </text>
<text x="196.8" y="512" fill="#0000af" font-weight="bold">⣿⣿⣿⣿⣿⣿⣿⣿⣿⣾⣿⣿⣿⣿⣿⣿⣿⣿⣿⣿⣿⣿⣿⣿⣿⣿⡟</text>
<text x="423.6" y="512" fill="#c9d1d9">                    </text>
<text x="591.6" y="512" fill="#00af00">⢻⣿⣿⣿⣿⣿⣿⣿⣿⣿⣿⣿⣿⣿⣿⣿⣿⡿</text>
<text x="742.8" y="512" fill="#c9d1d9">                        </text>
<text x="944.4" y="512" fill="#ffff5f">⠉⠛⠛⠋⠉⠁</text>
<text x="994.8" y="512" fill="#c9d1d9">     </text>
<text x="1036.8" y="512" fill="#ffff5f">⢰⣿⣿⣿⣿⣿⣿⣿⣿⣿⣿⣿⣿⣶⣾⣿⣿</text>
<text x="12.0" y="530" fill="#c9d1d9">                      </text>
<text x="196.8" y="530" fill="#0000af" font-weight="bold">⣿⣿⣿⣿⣿⣿⣿⣿⣿⣿⣿⣿⣿⣿⣿⣿⣿⣿⣿⣿⠿⣿⣿⣿⣿⣿⠃</text>
<text x="423.6" y="530" fill="#c9d1d9">                    </text>
<text x="591.6" y="530" fill="#00af00">⢸⣿⣿⣿⣿⣿⣿⣿⣿⣿⣿⣿⣿⣿⣿⣿⡿⠁⢀</text>
<text x="751.2" y="530" fill="#c9d1d9">                                  </text>
<text x="1036.8" y="530" fill="#ffff5f">⠸⣿⣿⣿⣿⣿⣿⣿⣿⣿⣿⡟⠻⣿⣿⣿⡟</text>
<text x="12.0" y="548" fill="#c9d1d9">                      </text>
<text x="196.8" y="548" fill="#0000af" font-weight="bold">⠸⣿⣿⣿⣿⣿⣿⣿⣿⣿⣿⣿⣿⣿⠿⠛⠋⠉⠁</text>
<text x="356.4" y="548" fill="#c9d1d9">    </text>
<text x="390.0" y="548" fill="#0000af" font-weight="bold">⠈⠉⠉</text>
<text x="415.2" y="548" fill="#c9d1d9">                      </text>
<text x="600.0" y="548" fill="#00af00">⠙⣿⣿⣿⣿⣿⣿⣿⣿⠁⣿⣿⣿⣿⣿⠃⢠⣿⣿⣦⣤⣄</text>
<text x="784.8" y="548" fill="#c9d1d9">                               </text>
<text x="1045.2" y="548" fill="#ffff5f">⠹⣿⣿⣿⣿⣿⣿⣿⣿⣿⡇</text>
<text x="1137.6" y="548" fill="#c9d1d9"> </text>
<text x="1146.0" y="548" fill="#ffff5f">⢿⣿⠏⣰</text>
<text x="12.0" y="566" fill="#c9d1d9">                       </text>
<text x="205.2" y="566" fill="#0000af" font-weight="bold">⠈⠛⠿⣿⣿⣿⣿⣿⣿⠿⠛⠉</text>
<text x="306.0" y="566" fill="#c9d1d9">                                   </text>
<text x="600.0" y="566" fill="#00af00">⣠⣿⣿⣿⣿⣿⣿⣿⡿</text>
<text x="675.6" y="566" fill="#c9d1d9"> </text>
<text x="684.0" y="566" fill="#00af00">⣿⣿⣿⠿⠁⠰⢿⣿⣿⣿⣿⣿⣿⣷⣦⣄⡀</text>
<text x="826.8" y="566" fill="#c9d1d9">  </text>
<text x="843.6" y="566" fill="#00af00">⢀⣠⣤⣶⣤⣄</text>
<text x="894.0" y="566" fill="#c9d1d9">                   </text>
<text x="1053.6" y="566" fill="#ffff5f">⠹⣿⣿⣿⣿⣿⣿⣿⣿⡇</text>
<text x="1137.6" y="566" fill="#c9d1d9"> </text>
<text x="1146.0" y="566" fill="#ffff5f">⠘⢁⣼⣿</text>
<text x="12.0" y="584" fill="#c9d1d9">                     </text>
<text x="188.4" y="584" fill="#0000af" font-weight="bold">⢀⣾⣦⣀</text>
<text x="222.0" y="584" fill="#c9d1d9"> </text>
<text x="230.4" y="584" fill="#0000af" font-weight="bold">⢄⣀</text>
<text x="247.2" y="584" fill="#c9d1d9">                                        </text>
<text x="583.2" y="584" fill="#00af00">⣠⣾⣿⣿⣿⣿⣿⣿⣿⣿⠁</text>
<text x="675.6" y="584" fill="#c9d1d9"> </text>
<text x="684.0" y="584" fill="#00af00">⠿⠛⠁</text>
<text x="709.2" y="584" fill="#c9d1d9">     </text>
<text x="751.2" y="584" fill="#00af00">⠙⠛⣿⣿⣿⣿⣿⣿⣿⣿⣿⣿⣿⣿⣿⣿⠟</text>
<text x="894.0" y="584" fill="#c9d1d9">                   </text>
<text x="1053.6" y="584" fill="#ffff5f">⣴⣿⣿⣿⣿⣿⣿⣿⣿⠃</text>
<text x="1137.6" y="584" fill="#c9d1d9">  </text>
<text x="1154.4" y="584" fill="#ffff5f">⠙⢿⣿</text>
<text x="12.0" y="602" fill="#c9d1d9">                    </text>
<text x="180.0" y="602" fill="#0000af" font-weight="bold">⣠⣿⣿⣿⣿⣷⣾⡿⠟</text>
<text x="255.6" y="602" fill="#c9d1d9">                                     </text>
<text x="566.4" y="602" fill="#00af00">⢀⣸⣿⣿⣿⣿⣿⣿⣿⣿⡿⠃</text>
<text x="667.2" y="602" fill="#c9d1d9">             </text>
<text x="776.4" y="602" fill="#00af00">⠈⠻⣿⣿⣿⣿⣿⣿⣿⡟⠛⠉</text>
<text x="877.2" y="602" fill="#c9d1d9">                    </text>
<text x="1045.2" y="602" fill="#ffff5f">⢀⣿⣿⣿⣿⣿⣿⣿⡿⠃</text>
<text x="1129.2" y="602" fill="#c9d1d9">     </text>
<text x="1171.2" y="602" fill="#ffff5f">⠙</text>
<text x="12.0" y="620" fill="#c9d1d9">                   </text>
<text x="171.6" y="620" fill="#0000af" font-weight="bold">⣰⣿⣿⣿⣿⣿⡿⠋</text>
<text x="238.8" y="620" fill="#c9d1d9">                                      </text>
<text x="558.0" y="620" fill="#00af00">⢀⣾⣿⣿⣿⣿⣿⣿⣿⠿⠋</text>
<text x="650.4" y="620" fill="#c9d1d9">                  </text>
<text x="801.6" y="620" fill="#00af00">⠙⠿⠛⠛⠋⠁</text>
<text x="852.0" y="620" fill="#c9d1d9">                      </text>
<text x="1036.8" y="620" fill="#ffff5f">⢀⣾⣿⣿⣿⣿⣿⠿⠋</text>
<text x="12.0" y="638" fill="#c9d1d9">                  </text>
<text x="163.2" y="638" fill="#0000af" font-weight="bold">⢠⣿⣿⣿⣿⣿⠋</text>
<text x="222.0" y="638" fill="#c9d1d9">                                        </text>
<text x="558.0" y="638" fill="#00af00">⣾⣿⣿⣿⣿⡿⠋⠁</text>
<text x="625.2" y="638" fill="#c9d1d9">                                                 </text>
<text x="1036.8" y="638" fill="#ffff5f">⣾⣿⣿⣿⣿⠋</text>
<text x="12.0" y="656" fill="#c9d1d9">                  </text>
<text x="163.2" y="656" fill="#0000af" font-weight="bold">⢸⣿⣿⣿⣿⣿⣶⣤⣀⣀⡀</text>
<text x="255.6" y="656" fill="#c9d1d9">                                    </text>
<text x="558.0" y="656" fill="#00af00">⣿⣿⣿⣿⣿⣇</text>
<text x="608.4" y="656" fill="#c9d1d9">                                                  </text>
<text x="1028.4" y="656" fill="#ffff5f">⢠⣿⣿⣿⣿⣇⡀</text>
<text x="12.0" y="674" fill="#c9d1d9">                  </text>
<text x="163.2" y="674" fill="#0000af" font-weight="bold">⠈⠻⠿⠿⠿⠿⠿⠿⣿⣿⣿⡆</text>
<text x="264.0" y="674" fill="#c9d1d9">                                   </text>
<text x="558.0" y="674" fill="#00af00">⠿⣿⣿⣿⣿⣿⣿⣿⣶⡄</text>
<text x="642.0" y="674" fill="#c9d1d9">                                              </text>
<text x="1028.4" y="674" fill="#ffff5f">⠘⣿⣿⣿⣿⣿⣿⣿⣿⣧</text>
<text x="12.0" y="692" fill="#ff8700">▔▔▔▔▔▔▔▔▔▔▔▔▔▔▔▔▔▔▔▔▔▔▔▔▔▔▔▔▔▔▔▔▔▔▔▔▔▔▔▔▔▔▔▔▔▔▔▔▔▔▔▔▔▔▔▔▔▔▔▔▔▔▔▔▔▔▔▔▔▔▔▔▔▔▔▔▔▔▔▔▔▔▔▔▔▔▔▔▔▔▔▔▔▔▔▔▔▔▔▔▔▔▔▔▔▔▔▔▔▔▔▔▔▔▔▔▔▔▔▔▔▔▔▔▔▔▔▔▔▔▔▔▔▔▔▔▔▔▔</text>
<text x="12.0" y="710" fill="#c9d1d9"> </text>
<text x="20.4" y="710" fill="#ff00d7">steps 9</text>
<text x="12.0" y="728" fill="#768390"> bears  ·  deadviz standalone, the sink here  (v next mode, V previous, 1-9/0 pick, ↑↓ waterfall direction, Esc quits)</text>
</g></svg>