<svg xmlns="http://www.w3.org/2000/svg" width="1343" height="852" viewBox="0 0 1343 852">
<rect width="100%" height="100%" rx="8" fill="#0d1117"/>
<g font-family="DejaVu Sans Mono, Menlo, Consolas, monospace" font-size="14" xml:space="preserve">
<text x="12.0" y="26" fill="#39c5cf" font-weight="bold"> Poseidon › Jokes               </text>
<text x="280.8" y="26" fill="#c9d1d9"> </text>
<text x="289.2" y="26" fill="#39c5cf" font-weight="bold">            </text>
<rect x="12.0" y="30" width="8.9" height="18" fill="#c9d1d9"/>
<rect x="20.4" y="30" width="8.9" height="18" fill="#c9d1d9"/>
<rect x="28.8" y="30" width="8.9" height="18" fill="#c9d1d9"/>
<rect x="37.2" y="30" width="8.9" height="18" fill="#c9d1d9"/>
<rect x="45.6" y="30" width="8.9" height="18" fill="#c9d1d9"/>
<rect x="54.0" y="30" width="8.9" height="18" fill="#c9d1d9"/>
<rect x="62.4" y="30" width="8.9" height="18" fill="#c9d1d9"/>
<rect x="70.8" y="30" width="8.9" height="18" fill="#c9d1d9"/>
<rect x="79.2" y="30" width="8.9" height="18" fill="#c9d1d9"/>
<rect x="87.6" y="30" width="8.9" height="18" fill="#c9d1d9"/>
<rect x="96.0" y="30" width="8.9" height="18" fill="#c9d1d9"/>
<rect x="104.4" y="30" width="8.9" height="18" fill="#c9d1d9"/>
<rect x="112.8" y="30" width="8.9" height="18" fill="#c9d1d9"/>
<rect x="121.2" y="30" width="8.9" height="18" fill="#c9d1d9"/>
<rect x="129.6" y="30" width="8.9" height="18" fill="#c9d1d9"/>
<rect x="138.0" y="30" width="8.9" height="18" fill="#c9d1d9"/>
<rect x="146.4" y="30" width="8.9" height="18" fill="#c9d1d9"/>
<rect x="154.8" y="30" width="8.9" height="18" fill="#c9d1d9"/>
<rect x="163.2" y="30" width="8.9" height="18" fill="#c9d1d9"/>
<rect x="171.6" y="30" width="8.9" height="18" fill="#c9d1d9"/>
<rect x="180.0" y="30" width="8.9" height="18" fill="#c9d1d9"/>
<rect x="188.4" y="30" width="8.9" height="18" fill="#c9d1d9"/>
<rect x="196.8" y="30" width="8.9" height="18" fill="#c9d1d9"/>
<rect x="205.2" y="30" width="8.9" height="18" fill="#c9d1d9"/>
<rect x="213.6" y="30" width="8.9" height="18" fill="#c9d1d9"/>
<rect x="222.0" y="30" width="8.9" height="18" fill="#c9d1d9"/>
<rect x="230.4" y="30" width="8.9" height="18" fill="#c9d1d9"/>
<rect x="238.8" y="30" width="8.9" height="18" fill="#c9d1d9"/>
<rect x="247.2" y="30" width="8.9" height="18" fill="#c9d1d9"/>
<rect x="255.6" y="30" width="8.9" height="18" fill="#c9d1d9"/>
<rect x="264.0" y="30" width="8.9" height="18" fill="#c9d1d9"/>
<rect x="272.4" y="30" width="8.9" height="18" fill="#c9d1d9"/>
<rect x="280.8" y="30" width="8.9" height="18" fill="#c9d1d9"/>
<rect x="289.2" y="30" width="8.9" height="18" fill="#c9d1d9"/>
<rect x="297.6" y="30" width="8.9" height="18" fill="#c9d1d9"/>
<rect x="306.0" y="30" width="8.9" height="18" fill="#c9d1d9"/>
<rect x="314.4" y="30" width="8.9" height="18" fill="#c9d1d9"/>
<rect x="322.8" y="30" width="8.9" height="18" fill="#c9d1d9"/>
<rect x="331.2" y="30" width="8.9" height="18" fill="#c9d1d9"/>
<rect x="339.6" y="30" width="8.9" height="18" fill="#c9d1d9"/>
<rect x="348.0" y="30" width="8.9" height="18" fill="#c9d1d9"/>
<rect x="356.4" y="30" width="8.9" height="18" fill="#c9d1d9"/>
<rect x="364.8" y="30" width="8.9" height="18" fill="#c9d1d9"/>
<rect x="373.2" y="30" width="8.9" height="18" fill="#c9d1d9"/>
<rect x="381.6" y="30" width="8.9" height="18" fill="#c9d1d9"/>
<rect x="390.0" y="30" width="8.9" height="18" fill="#c9d1d9"/>
<rect x="398.4" y="30" width="8.9" height="18" fill="#c9d1d9"/>
<rect x="406.8" y="30" width="8.9" height="18" fill="#c9d1d9"/>
<rect x="415.2" y="30" width="8.9" height="18" fill="#c9d1d9"/>
<rect x="423.6" y="30" width="8.9" height="18" fill="#c9d1d9"/>
<rect x="432.0" y="30" width="8.9" height="18" fill="#c9d1d9"/>
<rect x="440.4" y="30" width="8.9" height="18" fill="#c9d1d9"/>
<rect x="448.8" y="30" width="8.9" height="18" fill="#c9d1d9"/>
<rect x="457.2" y="30" width="8.9" height="18" fill="#c9d1d9"/>
<rect x="465.6" y="30" width="8.9" height="18" fill="#c9d1d9"/>
<rect x="474.0" y="30" width="8.9" height="18" fill="#c9d1d9"/>
<rect x="482.4" y="30" width="8.9" height="18" fill="#c9d1d9"/>
<rect x="490.8" y="30" width="8.9" height="18" fill="#c9d1d9"/>
<rect x="499.2" y="30" width="8.9" height="18" fill="#c9d1d9"/>
<rect x="507.6" y="30" width="8.9" height="18" fill="#c9d1d9"/>
<rect x="516.0" y="30" width="8.9" height="18" fill="#c9d1d9"/>
<rect x="524.4" y="30" width="8.9" height="18" fill="#c9d1d9"/>
<rect x="532.8" y="30" width="8.9" height="18" fill="#c9d1d9"/>
<rect x="541.2" y="30" width="8.9" height="18" fill="#c9d1d9"/>
<rect x="549.6" y="30" width="8.9" height="18" fill="#c9d1d9"/>
<rect x="558.0" y="30" width="8.9" height="18" fill="#c9d1d9"/>
<rect x="566.4" y="30" width="8.9" height="18" fill="#c9d1d9"/>
<rect x="574.8" y="30" width="8.9" height="18" fill="#c9d1d9"/>
<rect x="583.2" y="30" width="8.9" height="18" fill="#c9d1d9"/>
<rect x="591.6" y="30" width="8.9" height="18" fill="#c9d1d9"/>
<rect x="600.0" y="30" width="8.9" height="18" fill="#c9d1d9"/>
<rect x="608.4" y="30" width="8.9" height="18" fill="#c9d1d9"/>
<rect x="616.8" y="30" width="8.9" height="18" fill="#c9d1d9"/>
<rect x="625.2" y="30" width="8.9" height="18" fill="#c9d1d9"/>
<rect x="633.6" y="30" width="8.9" height="18" fill="#c9d1d9"/>
<rect x="642.0" y="30" width="8.9" height="18" fill="#c9d1d9"/>
<rect x="650.4" y="30" width="8.9" height="18" fill="#c9d1d9"/>
<rect x="658.8" y="30" width="8.9" height="18" fill="#c9d1d9"/>
<rect x="667.2" y="30" width="8.9" height="18" fill="#c9d1d9"/>
<rect x="675.6" y="30" width="8.9" height="18" fill="#c9d1d9"/>
<rect x="684.0" y="30" width="8.9" height="18" fill="#c9d1d9"/>
<rect x="692.4" y="30" width="8.9" height="18" fill="#c9d1d9"/>
<rect x="700.8" y="30" width="8.9" height="18" fill="#c9d1d9"/>
<rect x="709.2" y="30" width="8.9" height="18" fill="#c9d1d9"/>
<rect x="717.6" y="30" width="8.9" height="18" fill="#c9d1d9"/>
<rect x="726.0" y="30" width="8.9" height="18" fill="#c9d1d9"/>
<rect x="734.4" y="30" width="8.9" height="18" fill="#c9d1d9"/>
<rect x="742.8" y="30" width="8.9" height="18" fill="#c9d1d9"/>
<rect x="751.2" y="30" width="8.9" height="18" fill="#c9d1d9"/>
<rect x="759.6" y="30" width="8.9" height="18" fill="#c9d1d9"/>
<rect x="768.0" y="30" width="8.9" height="18" fill="#c9d1d9"/>
<rect x="776.4" y="30" width="8.9" height="18" fill="#c9d1d9"/>
<rect x="784.8" y="30" width="8.9" height="18" fill="#c9d1d9"/>
<rect x="793.2" y="30" width="8.9" height="18" fill="#c9d1d9"/>
<rect x="801.6" y="30" width="8.9" height="18" fill="#c9d1d9"/>
<rect x="810.0" y="30" width="8.9" height="18" fill="#c9d1d9"/>
<rect x="818.4" y="30" width="8.9" height="18" fill="#c9d1d9"/>
<rect x="826.8" y="30" width="8.9" height="18" fill="#c9d1d9"/>
<rect x="835.2" y="30" width="8.9" height="18" fill="#c9d1d9"/>
<rect x="843.6" y="30" width="8.9" height="18" fill="#c9d1d9"/>
<rect x="852.0" y="30" width="8.9" height="18" fill="#c9d1d9"/>
<rect x="860.4" y="30" width="8.9" height="18" fill="#c9d1d9"/>
<rect x="868.8" y="30" width="8.9" height="18" fill="#c9d1d9"/>
<rect x="877.2" y="30" width="8.9" height="18" fill="#c9d1d9"/>
<rect x="885.6" y="30" width="8.9" height="18" fill="#c9d1d9"/>
<rect x="894.0" y="30" width="8.9" height="18" fill="#c9d1d9"/>
<rect x="902.4" y="30" width="8.9" height="18" fill="#c9d1d9"/>
<rect x="910.8" y="30" width="8.9" height="18" fill="#c9d1d9"/>
<rect x="919.2" y="30" width="8.9" height="18" fill="#c9d1d9"/>
<rect x="927.6" y="30" width="8.9" height="18" fill="#c9d1d9"/>
<rect x="936.0" y="30" width="8.9" height="18" fill="#c9d1d9"/>
<rect x="944.4" y="30" width="8.9" height="18" fill="#c9d1d9"/>
<rect x="952.8" y="30" width="8.9" height="18" fill="#c9d1d9"/>
<rect x="961.2" y="30" width="8.9" height="18" fill="#c9d1d9"/>
<rect x="969.6" y="30" width="8.9" height="18" fill="#c9d1d9"/>
<rect x="978.0" y="30" width="8.9" height="18" fill="#c9d1d9"/>
<rect x="986.4" y="30" width="8.9" height="18" fill="#c9d1d9"/>
<rect x="994.8" y="30" width="8.9" height="18" fill="#c9d1d9"/>
<rect x="1003.2" y="30" width="8.9" height="18" fill="#c9d1d9"/>
<rect x="1011.6" y="30" width="8.9" height="18" fill="#c9d1d9"/>
<rect x="1020.0" y="30" width="8.9" height="18" fill="#c9d1d9"/>
<rect x="1028.4" y="30" width="8.9" height="18" fill="#c9d1d9"/>
<rect x="1036.8" y="30" width="8.9" height="18" fill="#c9d1d9"/>
<rect x="1045.2" y="30" width="8.9" height="18" fill="#c9d1d9"/>
<rect x="1053.6" y="30" width="8.9" height="18" fill="#c9d1d9"/>
<rect x="1062.0" y="30" width="8.9" height="18" fill="#c9d1d9"/>
<rect x="1070.4" y="30" width="8.9" height="18" fill="#c9d1d9"/>
<rect x="1078.8" y="30" width="8.9" height="18" fill="#c9d1d9"/>
<rect x="1087.2" y="30" width="8.9" height="18" fill="#c9d1d9"/>
<rect x="1095.6" y="30" width="8.9" height="18" fill="#c9d1d9"/>
<rect x="1104.0" y="30" width="8.9" height="18" fill="#c9d1d9"/>
<rect x="1112.4" y="30" width="8.9" height="18" fill="#c9d1d9"/>
<rect x="1120.8" y="30" width="8.9" height="18" fill="#c9d1d9"/>
<rect x="1129.2" y="30" width="8.9" height="18" fill="#c9d1d9"/>
<rect x="1137.6" y="30" width="8.9" height="18" fill="#c9d1d9"/>
<rect x="1146.0" y="30" width="8.9" height="18" fill="#c9d1d9"/>
<rect x="1154.4" y="30" width="8.9" height="18" fill="#c9d1d9"/>
<rect x="1162.8" y="30" width="8.9" height="18" fill="#c9d1d9"/>
<rect x="1171.2" y="30" width="8.9" height="18" fill="#c9d1d9"/>
<rect x="1179.6" y="30" width="8.9" height="18" fill="#c9d1d9"/>
<rect x="1188.0" y="30" width="8.9" height="18" fill="#c9d1d9"/>
<rect x="1196.4" y="30" width="8.9" height="18" fill="#c9d1d9"/>
<rect x="1204.8" y="30" width="8.9" height="18" fill="#c9d1d9"/>
<rect x="1213.2" y="30" width="8.9" height="18" fill="#c9d1d9"/>
<rect x="1221.6" y="30" width="8.9" height="18" fill="#c9d1d9"/>
<rect x="1230.0" y="30" width="8.9" height="18" fill="#c9d1d9"/>
<rect x="1238.4" y="30" width="8.9" height="18" fill="#c9d1d9"/>
<rect x="1246.8" y="30" width="8.9" height="18" fill="#c9d1d9"/>
<rect x="1255.2" y="30" width="8.9" height="18" fill="#c9d1d9"/>
<rect x="1263.6" y="30" width="8.9" height="18" fill="#c9d1d9"/>
<rect x="1272.0" y="30" width="8.9" height="18" fill="#c9d1d9"/>
<rect x="1280.4" y="30" width="8.9" height="18" fill="#c9d1d9"/>
<rect x="1288.8" y="30" width="8.9" height="18" fill="#c9d1d9"/>
<rect x="1297.2" y="30" width="8.9" height="18" fill="#c9d1d9"/>
<rect x="1305.6" y="30" width="8.9" height="18" fill="#c9d1d9"/>
<rect x="1314.0" y="30" width="8.9" height="18" fill="#c9d1d9"/>
<rect x="1322.4" y="30" width="8.9" height="18" fill="#c9d1d9"/>
<text x="12.0" y="44" fill="#0d1117">* ✂ Penalized for Your Dependence on Batteries (or a Well Deserved Break)   1976-06-12 at 7:42: Dead stage banter, Boston Music Hall, at the end of Mission  </text>
<text x="12.0" y="62" fill="#c9d1d9">  1959  Lord Buckley       Way Out Humor</text>
<text x="12.0" y="80" fill="#c9d1d9">  1964  Lord Buckley       In Concert</text>
<text x="12.0" y="98" fill="#c9d1d9">  1962  Lenny Bruce        The Best of Lenny Bruce</text>
<text x="12.0" y="116" fill="#c9d1d9">  1971  Lenny Bruce        Live at the Curran Theater</text>
<text x="12.0" y="134" fill="#c9d1d9">  1958  Mort Sahl          At Sunset</text>
<text x="12.0" y="152" fill="#c9d1d9">  1959  Shelley Berman     Inside Shelley Berman</text>
<text x="12.0" y="170" fill="#c9d1d9">  1960  Jonathan Winters   Down to Earth</text>
<text x="12.0" y="188" fill="#c9d1d9">  1961  Bob Newhart        Behind the Button-Down Mind</text>
<text x="12.0" y="206" fill="#c9d1d9">  1962  Beyond the Fringe  Beyond the Fringe</text>
<text x="12.0" y="224" fill="#c9d1d9">  1963  The Goons          The Best of the Goon Shows No. 2</text>
<text x="12.0" y="242" fill="#c9d1d9">  1958  Stan Freberg       The Best of the Stan Freberg Shows</text>
<text x="12.0" y="260" fill="#c9d1d9">  1965  Redd Foxx          Laff Your Head Off</text>
<text x="12.0" y="278" fill="#c9d1d9">  1967  Flip Wilson        Cowboys &amp; Colored People</text>
<text x="12.0" y="296" fill="#c9d1d9">  1969  Moms Mabley        Abraham, Martin &amp; John</text>
<text x="12.0" y="314" fill="#c9d1d9">  1970  Monty Python       Monty Python's Flying Circus</text>
<text x="12.0" y="332" fill="#c9d1d9">  1971  Richard Pryor      Craps (After Hours)</text>
<text x="12.0" y="782" fill="#768390">─────────────────────────────────────────────────────────────────────────────────────────────────────────────────────────────────────────────────────────────</text>
<text x="12.0" y="800" fill="#57ab5a"> ▶ 1977-05-08 Barton Hall  ·  Loser</text>
<text x="12.0" y="818" fill="#c9d1d9">   0:03 / 8:51  [&gt;                                                                                                   ]  3/22  stream mp3 44.1k 187kbps</text>
<text x="12.0" y="836" fill="#768390"> ↵ open  p play  ␣ pause  n/b trk  ←→ seek  / filter  f song  g goto  v show  d fetch  r resume  q quit (music stays)  Q stop &amp; quit</text>
</g></svg>