<svg xmlns="http://www.w3.org/2000/svg" width="1192" height="744" viewBox="0 0 1192 744">
<rect width="100%" height="100%" rx="8" fill="#0d1117"/>
<g font-family="DejaVu Sans Mono, Menlo, Consolas, monospace" font-size="14" xml:space="preserve">
<text x="12.0" y="26" fill="#c9d1d9">                                 </text>
<text x="289.2" y="26" fill="#d7ffff">·</text>
<text x="297.6" y="26" fill="#c9d1d9">                     </text>
<text x="474.0" y="26" fill="#afffff">·</text>
<text x="482.4" y="26" fill="#c9d1d9">                                                                           </text>
<text x="1112.4" y="26" fill="#87d7ff">·</text>
<text x="12.0" y="44" fill="#c9d1d9">                                   </text>
<text x="306.0" y="44" fill="#87afff">·</text>
<text x="314.4" y="44" fill="#c9d1d9">  </text>
<text x="331.2" y="44" fill="#5fafff">·</text>
<text x="339.6" y="44" fill="#c9d1d9">           </text>
<text x="432.0" y="44" fill="#ffffaf" font-weight="bold">PERIMEDES AND EURYLOCHUS BIND HIM FASTER</text>
<text x="12.0" y="62" fill="#c9d1d9">                         </text>
<text x="222.0" y="62" fill="#af00d7">⣀</text>
<text x="230.4" y="62" fill="#ff00d7">⡀</text>
<text x="238.8" y="62" fill="#c9d1d9">                     </text>
<text x="415.2" y="62" fill="#ffd7ff" font-weight="bold">STAY YOUR SHIP, THAT YOU MAY HEAR OUR VOICE</text>
<text x="12.0" y="80" fill="#c9d1d9">                      </text>
<text x="196.8" y="80" fill="#afd7ff">·</text>
<text x="205.2" y="80" fill="#c9d1d9">  </text>
<text x="222.0" y="80" fill="#af00d7">⢻</text>
<text x="230.4" y="80" fill="#ff00d7">⣿⣾⣤⣄⡀</text>
<text x="272.4" y="80" fill="#c9d1d9">    </text>
<text x="306.0" y="80" fill="#ffff5f" font-weight="bold">⢀⣤⣶⣦⣄</text>
<text x="348.0" y="80" fill="#ff00d7">⣤⣀</text>
<text x="364.8" y="80" fill="#c9d1d9">      </text>
<text x="415.2" y="80" fill="#ffff5f" font-weight="bold">⢀⣴⣶⣤⡀</text>
<text x="457.2" y="80" fill="#c9d1d9">                             </text>
<text x="700.8" y="80" fill="#87afff">·</text>
<text x="709.2" y="80" fill="#c9d1d9">            </text>
<text x="810.0" y="80" fill="#afffff">·</text>
<text x="12.0" y="98" fill="#c9d1d9">                     </text>
<text x="188.4" y="98" fill="#afffff">·</text>
<text x="196.8" y="98" fill="#c9d1d9">   </text>
<text x="222.0" y="98" fill="#af00d7">⠈</text>
<text x="230.4" y="98" fill="#ff00d7">⣿⣿⣿</text>
<text x="255.6" y="98" fill="#af00d7">⣿</text>
<text x="264.0" y="98" fill="#ff00d7">⣿⣾</text>
<text x="280.8" y="98" fill="#af00d7">⣦⡄</text>
<text x="297.6" y="98" fill="#c9d1d9"> </text>
<text x="306.0" y="98" fill="#ffff5f" font-weight="bold">⣾⣿⣿</text>
<text x="331.2" y="98" fill="#af5f00">⠤</text>
<text x="339.6" y="98" fill="#ffff5f" font-weight="bold">⣿⡄</text>
<text x="356.4" y="98" fill="#ff00d7">⣿</text>
<text x="364.8" y="98" fill="#af00d7">⣿</text>
<text x="373.2" y="98" fill="#ff00d7">⣷⣶</text>
<text x="390.0" y="98" fill="#af00d7">⣤⡀</text>
<text x="406.8" y="98" fill="#ffaf00">⢀</text>
<text x="415.2" y="98" fill="#ffff5f" font-weight="bold">⣿⣿⣿</text>
<text x="440.4" y="98" fill="#af5f00">⠤</text>
<text x="448.8" y="98" fill="#ffff5f" font-weight="bold">⣿</text>
<text x="457.2" y="98" fill="#c9d1d9">                          </text>
<text x="675.6" y="98" fill="#87d7ff">·</text>
<text x="12.0" y="116" fill="#c9d1d9">                          </text>
<text x="230.4" y="116" fill="#af00d7">⠸</text>
<text x="238.8" y="116" fill="#ff00d7">⣿⣿⣿⣿⣿</text>
<text x="280.8" y="116" fill="#af00d7">⣿⣧</text>
<text x="297.6" y="116" fill="#ffaf00">⣸</text>
<text x="306.0" y="116" fill="#ffff5f" font-weight="bold">⠸⣿⣿</text>
<text x="331.2" y="116" fill="#af5f00">⠒⠂</text>
<text x="348.0" y="116" fill="#ff00d7">⣿⣿</text>
<text x="364.8" y="116" fill="#af00d7">⣿</text>
<text x="373.2" y="116" fill="#ff00d7">⣿⣿</text>
<text x="390.0" y="116" fill="#af00d7">⣿⣷</text>
<text x="406.8" y="116" fill="#ffaf00">⣾</text>
<text x="415.2" y="116" fill="#ffff5f" font-weight="bold">⠻⣿⣿</text>
<text x="440.4" y="116" fill="#af5f00">⠒</text>
<text x="448.8" y="116" fill="#ffff5f" font-weight="bold">⠏</text>
<text x="457.2" y="116" fill="#c9d1d9">                  </text>
<text x="608.4" y="116" fill="#87d7ff">·</text>
<text x="12.0" y="134" fill="#c9d1d9">             </text>
<text x="121.2" y="134" fill="#afd7ff">·</text>
<text x="129.6" y="134" fill="#c9d1d9">      </text>
<text x="180.0" y="134" fill="#5fafff">·</text>
<text x="188.4" y="134" fill="#c9d1d9">      </text>
<text x="238.8" y="134" fill="#af00d7">⢻</text>
<text x="247.2" y="134" fill="#ff00d7">⣿⣿</text>
<text x="264.0" y="134" fill="#af00d7">⣿</text>
<text x="272.4" y="134" fill="#ff00d7">⣿</text>
<text x="280.8" y="134" fill="#af00d7">⣿</text>
<text x="289.2" y="134" fill="#ffaf00">⢐⣽</text>
<text x="306.0" y="134" fill="#ffff5f" font-weight="bold">⢀⣯⡿</text>
<text x="331.2" y="134" fill="#c9d1d9">  </text>
<text x="348.0" y="134" fill="#ffd7ff" font-weight="bold">♪</text>
<text x="356.4" y="134" fill="#ff00d7">⣿⣿⣿⣿</text>
<text x="390.0" y="134" fill="#af00d7">⣿</text>
<text x="398.4" y="134" fill="#ffaf00">⣘⣿⡿</text>
<text x="423.6" y="134" fill="#ffff5f" font-weight="bold">⣳⣾</text>
<text x="440.4" y="134" fill="#ffd7ff" font-weight="bold">♪♪</text>
<text x="457.2" y="134" fill="#c9d1d9">                                         </text>
<text x="801.6" y="134" fill="#87afff">·</text>
<text x="12.0" y="152" fill="#c9d1d9">                           </text>
<text x="238.8" y="152" fill="#af00d7">⠈</text>
<text x="247.2" y="152" fill="#ff00d7">⢿⣿⣿</text>
<text x="272.4" y="152" fill="#af00d7">⣿</text>
<text x="280.8" y="152" fill="#d700ff">⣿</text>
<text x="289.2" y="152" fill="#ffaf00">⠺⣿</text>
<text x="306.0" y="152" fill="#ffff5f" font-weight="bold">⠈⠛⠃</text>
<text x="331.2" y="152" fill="#ff00d7">⡀</text>
<text x="339.6" y="152" fill="#c9d1d9">  </text>
<text x="356.4" y="152" fill="#ff00d7">⢿</text>
<text x="364.8" y="152" fill="#ffd7ff" font-weight="bold">♪♫</text>
<text x="381.6" y="152" fill="#ff00d7">⣿</text>
<text x="390.0" y="152" fill="#af00d7">⣿</text>
<text x="398.4" y="152" fill="#ffaf00">⢿⣿⠇</text>
<text x="423.6" y="152" fill="#ffff5f" font-weight="bold">⠛⠛</text>
<text x="440.4" y="152" fill="#ff00d7">⣄⡀</text>
<text x="457.2" y="152" fill="#c9d1d9">             </text>
<text x="566.4" y="152" fill="#d7ffff">·</text>
<text x="574.8" y="152" fill="#c9d1d9">                </text>
<text x="709.2" y="152" fill="#87afff">·</text>
<text x="717.6" y="152" fill="#c9d1d9">                 </text>
<text x="860.4" y="152" fill="#afd7ff">·</text>
<text x="868.8" y="152" fill="#c9d1d9">                                 </text>
<text x="1146.0" y="152" fill="#87afff">·</text>
<text x="12.0" y="170" fill="#c9d1d9">                            </text>
<text x="247.2" y="170" fill="#af00d7">⠘</text>
<text x="255.6" y="170" fill="#ff00d7">⣿⣿</text>
<text x="272.4" y="170" fill="#d700ff">⣿⣿</text>
<text x="289.2" y="170" fill="#ffaf00">⢜⠟</text>
<text x="306.0" y="170" fill="#ff8700">⠁</text>
<text x="314.4" y="170" fill="#ff00d7">⣿⣿⣿⡄</text>
<text x="348.0" y="170" fill="#c9d1d9">  </text>
<text x="364.8" y="170" fill="#ff00d7">⢻</text>
<text x="373.2" y="170" fill="#af00d7">⣿</text>
<text x="381.6" y="170" fill="#ff00d7">⣿</text>
<text x="390.0" y="170" fill="#ffafff" font-weight="bold">♪</text>
<text x="398.4" y="170" fill="#ffaf00">⡾⠋</text>
<text x="415.2" y="170" fill="#ff00d7">⣿⣿⣿⣿⣷</text>
<text x="457.2" y="170" fill="#ffafff" font-weight="bold">♪</text>
<text x="465.6" y="170" fill="#c9d1d9">          </text>
<text x="549.6" y="170" fill="#d7ffff">·</text>
<text x="558.0" y="170" fill="#c9d1d9">    </text>
<text x="591.6" y="170" fill="#d7ffff">·</text>
<text x="12.0" y="188" fill="#c9d1d9">              </text>
<text x="129.6" y="188" fill="#afffff">·</text>
<text x="138.0" y="188" fill="#87afff">·</text>
<text x="146.4" y="188" fill="#c9d1d9">             </text>
<text x="255.6" y="188" fill="#af00d7">⠘</text>
<text x="264.0" y="188" fill="#ff00d7">⣿</text>
<text x="272.4" y="188" fill="#d700ff">⣿⣿⣿</text>
<text x="297.6" y="188" fill="#ff00d7">⣿⣿⣿⣿⣿⡅</text>
<text x="348.0" y="188" fill="#d7ffff">·</text>
<text x="356.4" y="188" fill="#c9d1d9">  </text>
<text x="373.2" y="188" fill="#ffafff" font-weight="bold">♪</text>
<text x="381.6" y="188" fill="#ff00d7">⣿</text>
<text x="390.0" y="188" fill="#ffafff" font-weight="bold">♪</text>
<text x="398.4" y="188" fill="#d700ff">⣿⣿</text>
<text x="415.2" y="188" fill="#ff00d7">⣿⣿⣿⣿⣿</text>
<text x="12.0" y="206" fill="#c9d1d9">                              </text>
<text x="264.0" y="206" fill="#ff00d7">⠙</text>
<text x="272.4" y="206" fill="#d700ff">⣿⣿⣿⣿</text>
<text x="306.0" y="206" fill="#ff00d7">⣿⣿⣿⣿</text>
<text x="339.6" y="206" fill="#c9d1d9">     </text>
<text x="381.6" y="206" fill="#ff00d7">⠹</text>
<text x="390.0" y="206" fill="#d700ff">⣿⣿⣿</text>
<text x="415.2" y="206" fill="#ff00d7">⣿⣿⣿⣿</text>
<text x="448.8" y="206" fill="#d700ff">⡿</text>
<text x="457.2" y="206" fill="#ffafff" font-weight="bold">♪</text>
<text x="465.6" y="206" fill="#ffff5f" font-weight="bold">⣶⣤</text>
<text x="482.4" y="206" fill="#afffff">⡀</text>
<text x="490.8" y="206" fill="#afd7ff">⡀</text>
<text x="499.2" y="206" fill="#87d7ff">⡀⡀</text>
<text x="516.0" y="206" fill="#ffff5f" font-weight="bold">⣶⡄</text>
<text x="532.8" y="206" fill="#c9d1d9">                                   </text>
<text x="826.8" y="206" fill="#87d7ff">·</text>
<text x="12.0" y="224" fill="#c9d1d9">                   </text>
<text x="171.6" y="224" fill="#87d7ff">·</text>
<text x="180.0" y="224" fill="#c9d1d9">          </text>
<text x="264.0" y="224" fill="#af00ff">⣠</text>
<text x="272.4" y="224" fill="#ff00d7">⣾⣿⣿</text>
<text x="297.6" y="224" fill="#d700ff">⣿⣿⣿⠟⠁</text>
<text x="339.6" y="224" fill="#c9d1d9">  </text>
<text x="356.4" y="224" fill="#5fafff">·</text>
<text x="364.8" y="224" fill="#c9d1d9">  </text>
<text x="381.6" y="224" fill="#ff00d7">⣠⣾⣿⣿</text>
<text x="415.2" y="224" fill="#d700ff">⣿</text>
<text x="423.6" y="224" fill="#ffafd7" font-weight="bold">♫</text>
<text x="432.0" y="224" fill="#d700ff">⡿⠟⠁</text>
<text x="457.2" y="224" fill="#c9d1d9"> </text>
<text x="465.6" y="224" fill="#ffff5f" font-weight="bold">⣿</text>
<text x="474.0" y="224" fill="#c9d1d9"> </text>
<text x="482.4" y="224" fill="#afffff">⡇</text>
<text x="490.8" y="224" fill="#afd7ff">⡇</text>
<text x="499.2" y="224" fill="#87d7ff">⡇⡇</text>
<text x="516.0" y="224" fill="#ffff5f" font-weight="bold">⢸⡇</text>
<text x="532.8" y="224" fill="#c9d1d9">                                     </text>
<text x="843.6" y="224" fill="#87d7ff">·</text>
<text x="852.0" y="224" fill="#c9d1d9">                               </text>
<text x="1112.4" y="224" fill="#87d7ff">·</text>
<text x="12.0" y="242" fill="#c9d1d9">                           </text>
<text x="238.8" y="242" fill="#af00ff">⣠</text>
<text x="247.2" y="242" fill="#ff00d7">⣴⣿⣿</text>
<text x="272.4" y="242" fill="#af00ff">⠿⠋⢹</text>
<text x="297.6" y="242" fill="#af00d7">⡇⢸⡇</text>
<text x="322.8" y="242" fill="#c9d1d9">    </text>
<text x="356.4" y="242" fill="#af00ff">⣠</text>
<text x="364.8" y="242" fill="#ff00d7">⣴⣿⣿</text>
<text x="390.0" y="242" fill="#af00ff">⠿⠋</text>
<text x="406.8" y="242" fill="#ffafd7" font-weight="bold">♪</text>
<text x="415.2" y="242" fill="#af00d7">⡇⢸</text>
<text x="432.0" y="242" fill="#ffafd7" font-weight="bold">♫</text>
<text x="440.4" y="242" fill="#c9d1d9">  </text>
<text x="457.2" y="242" fill="#ffff5f" font-weight="bold">⠈</text>
<text x="465.6" y="242" fill="#ffafd7" font-weight="bold">♪</text>
<text x="474.0" y="242" fill="#ffff5f" font-weight="bold">⡀</text>
<text x="482.4" y="242" fill="#afffff">⡇</text>
<text x="490.8" y="242" fill="#afd7ff">⡇</text>
<text x="499.2" y="242" fill="#87d7ff">⣧⠃</text>
<text x="516.0" y="242" fill="#ffff5f" font-weight="bold">⡼⠃</text>
<text x="532.8" y="242" fill="#c9d1d9">                                                   </text>
<text x="961.2" y="242" fill="#87afff">·</text>
<text x="969.6" y="242" fill="#c9d1d9">        </text>
<text x="1036.8" y="242" fill="#87afff">·</text>
<text x="12.0" y="260" fill="#c9d1d9">                        </text>
<text x="213.6" y="260" fill="#af00ff">⠠⣴</text>
<text x="230.4" y="260" fill="#ff00d7">⣿⣿⠟</text>
<text x="255.6" y="260" fill="#af00ff">⠋⠁</text>
<text x="272.4" y="260" fill="#00ffaf">⣀</text>
<text x="280.8" y="260" fill="#00d700">⡀</text>
<text x="289.2" y="260" fill="#af00d7">⢸⡃⢸⡇</text>
<text x="322.8" y="260" fill="#8700ff">⡄</text>
<text x="331.2" y="260" fill="#0087ff">⢰</text>
<text x="339.6" y="260" fill="#af00ff">⣴</text>
<text x="348.0" y="260" fill="#ff00d7">⣾⣿⠿</text>
<text x="373.2" y="260" fill="#af00ff">⠋⠁</text>
<text x="390.0" y="260" fill="#afff00">⠆</text>
<text x="398.4" y="260" fill="#c9d1d9"> </text>
<text x="406.8" y="260" fill="#ffafd7" font-weight="bold">♪</text>
<text x="415.2" y="260" fill="#af00d7">⡇⢘⡇</text>
<text x="440.4" y="260" fill="#00afff">⣀</text>
<text x="448.8" y="260" fill="#8700ff">⢀⣶</text>
<text x="465.6" y="260" fill="#ffff5f" font-weight="bold">⠸⣣</text>
<text x="482.4" y="260" fill="#afffff">⡃</text>
<text x="490.8" y="260" fill="#afd7ff">⡃</text>
<text x="499.2" y="260" fill="#87d7ff">⣛</text>
<text x="507.6" y="260" fill="#ffff5f" font-weight="bold">⣰⡝</text>
<text x="12.0" y="278" fill="#c9d1d9">                         </text>
<text x="222.0" y="278" fill="#ff00d7">⠈</text>
<text x="230.4" y="278" fill="#af00ff">⠉</text>
<text x="238.8" y="278" fill="#c9d1d9">  </text>
<text x="255.6" y="278" fill="#ff8700">⠀</text>
<text x="264.0" y="278" fill="#ffaf00">⣀</text>
<text x="272.4" y="278" fill="#00ffaf">⠉</text>
<text x="280.8" y="278" fill="#afffaf">⣷</text>
<text x="289.2" y="278" fill="#af00d7">⠘⠓⠒⠃⠒</text>
<text x="331.2" y="278" fill="#0087ff">⠈</text>
<text x="339.6" y="278" fill="#ff00d7">⠈</text>
<text x="348.0" y="278" fill="#af00ff">⠉⠁</text>
<text x="364.8" y="278" fill="#afffaf">⣹</text>
<text x="373.2" y="278" fill="#87ff87">⣎</text>
<text x="381.6" y="278" fill="#00ffaf">⠉</text>
<text x="390.0" y="278" fill="#ffffd7">⣀</text>
<text x="398.4" y="278" fill="#afffaf">⣎</text>
<text x="406.8" y="278" fill="#af00d7">⠈⠒⠚⠓⠒</text>
<text x="448.8" y="278" fill="#8700ff">⠈⠁</text>
<text x="465.6" y="278" fill="#ffffd7">⢀</text>
<text x="474.0" y="278" fill="#ffff5f" font-weight="bold">⠉</text>
<text x="482.4" y="278" fill="#afffff">⠁</text>
<text x="490.8" y="278" fill="#afd7ff">⠁</text>
<text x="499.2" y="278" fill="#87d7ff">⠉</text>
<text x="507.6" y="278" fill="#ffff5f" font-weight="bold">⠉</text>
<text x="516.0" y="278" fill="#ffffd7">⢀</text>
<text x="12.0" y="296" fill="#ffffff">~</text>
<text x="20.4" y="296" fill="#c9d1d9">                   </text>
<text x="180.0" y="296" fill="#ffffd7">⢀</text>
<text x="188.4" y="296" fill="#c9d1d9">    </text>
<text x="222.0" y="296" fill="#ff8700">⣀</text>
<text x="230.4" y="296" fill="#ffaf00">⡤⣶</text>
<text x="247.2" y="296" fill="#ffd700">⣻</text>
<text x="255.6" y="296" fill="#ffaf00">⣛</text>
<text x="264.0" y="296" fill="#ff8700">⣾</text>
<text x="272.4" y="296" fill="#ffaf00">⣽⣷</text>
<text x="289.2" y="296" fill="#ffd700">⣯</text>
<text x="297.6" y="296" fill="#ffffd7">⢄⡠⠵⢠⠄</text>
<text x="339.6" y="296" fill="#ffaf00">⣿</text>
<text x="348.0" y="296" fill="#ffffd7">⢐⣀⣀⢐⠈⠨⠔</text>
<text x="406.8" y="296" fill="#ffaf00">⢿</text>
<text x="415.2" y="296" fill="#ffd700">⣶</text>
<text x="423.6" y="296" fill="#ffaf00">⣟</text>
<text x="432.0" y="296" fill="#ff8700">⡿</text>
<text x="440.4" y="296" fill="#ffffd7">⠰⠂⠊</text>
<text x="465.6" y="296" fill="#ff87d7" font-weight="bold">♫</text>
<text x="474.0" y="296" fill="#ff8700">⣽</text>
<text x="482.4" y="296" fill="#ffaf00">⣶</text>
<text x="490.8" y="296" fill="#ffffd7">⢘⠒⠐⠲</text>
<text x="524.4" y="296" fill="#c9d1d9">         </text>
<text x="600.0" y="296" fill="#ffffff">~</text>
<text x="608.4" y="296" fill="#c9d1d9">          </text>
<text x="692.4" y="296" fill="#ffffff">~</text>
<text x="700.8" y="296" fill="#c9d1d9">                                    </text>
<text x="1003.2" y="296" fill="#ffffff">~</text>
<rect x="12.0" y="300" width="34.1" height="18" fill="#0087ff"/>
<rect x="549.6" y="300" width="193.7" height="18" fill="#0087ff"/>
<rect x="952.8" y="300" width="92.9" height="18" fill="#0087ff"/>
<text x="12.0" y="314" fill="#c9d1d9">                </text>
<text x="146.4" y="314" fill="#ffffff">~</text>
<text x="154.8" y="314" fill="#c9d1d9"> </text>
<text x="163.2" y="314" fill="#ffffd7">⠰⡒⠐⠃</text>
<text x="196.8" y="314" fill="#ffaf00">⣀⡴</text>
<text x="213.6" y="314" fill="#ffd700">⣿</text>
<text x="222.0" y="314" fill="#ffaf00">⣻</text>
<text x="230.4" y="314" fill="#ff8700">⣛</text>
<text x="238.8" y="314" fill="#ffaf00">⣾⣽</text>
<text x="255.6" y="314" fill="#ffd700">⣷</text>
<text x="264.0" y="314" fill="#ffaf00">⣯</text>
<text x="272.4" y="314" fill="#ff8700">⢾</text>
<text x="280.8" y="314" fill="#ffaf00">⢿⣶</text>
<text x="297.6" y="314" fill="#ffffd7">⠈</text>
<text x="306.0" y="314" fill="#ffaf00">⡿</text>
<text x="314.4" y="314" fill="#ff8700">⣿</text>
<text x="322.8" y="314" fill="#ffffd7">⠒⠂</text>
<text x="339.6" y="314" fill="#ffd700">⣾</text>
<text x="348.0" y="314" fill="#ffffd7">⠈</text>
<text x="356.4" y="314" fill="#ff8700">⣷</text>
<text x="364.8" y="314" fill="#ffaf00">⣯</text>
<text x="373.2" y="314" fill="#ffffd7">⠜⠒⠤⡔</text>
<text x="406.8" y="314" fill="#ffaf00">⡿⣿</text>
<text x="423.6" y="314" fill="#ffd700">⣻</text>
<text x="432.0" y="314" fill="#ffffff" font-weight="bold">LOOSE ME!</text>
<text x="507.6" y="314" fill="#ffd700">⡿</text>
<text x="516.0" y="314" fill="#ffaf00">⣶</text>
<text x="524.4" y="314" fill="#ff8700">⣠</text>
<text x="532.8" y="314" fill="#ffffd7">⣘⠁</text>
<text x="549.6" y="314" fill="#c9d1d9">                                                                        </text>
<text x="1154.4" y="314" fill="#ffffff">~</text>
<rect x="12.0" y="318" width="151.7" height="18" fill="#0087ff"/>
<rect x="566.4" y="318" width="218.9" height="18" fill="#0087ff"/>
<rect x="826.8" y="318" width="353.3" height="18" fill="#0087ff"/>
<text x="12.0" y="332" fill="#c9d1d9">                  </text>
<text x="163.2" y="332" fill="#ffaf00">⢀⣀</text>
<text x="180.0" y="332" fill="#ffd700">⡶</text>
<text x="188.4" y="332" fill="#ffaf00">⣿</text>
<text x="196.8" y="332" fill="#ff8700">⣻</text>
<text x="205.2" y="332" fill="#ffaf00">⣛⣾</text>
<text x="222.0" y="332" fill="#ffd700">⣽</text>
<text x="230.4" y="332" fill="#ffaf00">⣷</text>
<text x="238.8" y="332" fill="#ff8700">⣯</text>
<text x="247.2" y="332" fill="#ffaf00">⢾⢿</text>
<text x="264.0" y="332" fill="#ffd700">⣶</text>
<text x="272.4" y="332" fill="#ffaf00">⣟</text>
<text x="280.8" y="332" fill="#ff8700">⡿</text>
<text x="289.2" y="332" fill="#ffaf00">⣿⣻</text>
<text x="306.0" y="332" fill="#ffd700">⣛</text>
<text x="314.4" y="332" fill="#ffaf00">⣾</text>
<text x="322.8" y="332" fill="#ff8700">⣽</text>
<text x="331.2" y="332" fill="#ffaf00">⣷⣯</text>
<text x="348.0" y="332" fill="#ffd700">⢾</text>
<text x="356.4" y="332" fill="#ffaf00">⢿</text>
<text x="364.8" y="332" fill="#ff8700">⣶</text>
<text x="373.2" y="332" fill="#ffaf00">⣟⡿</text>
<text x="390.0" y="332" fill="#ffd700">⣿</text>
<text x="398.4" y="332" fill="#ffaf00">⣻</text>
<text x="406.8" y="332" fill="#ff8700">⣛</text>
<text x="415.2" y="332" fill="#ffaf00">⣾⣽</text>
<text x="432.0" y="332" fill="#ffd700">⣷</text>
<text x="440.4" y="332" fill="#ffaf00">⣯</text>
<text x="448.8" y="332" fill="#ff8700">⢾</text>
<text x="457.2" y="332" fill="#ffaf00">⢿</text>
<text x="465.6" y="332" fill="#ffffff" font-weight="bold">|</text>
<text x="474.0" y="332" fill="#ffd700">⣟</text>
<text x="482.4" y="332" fill="#ffaf00">⡿</text>
<text x="490.8" y="332" fill="#ff8700">⣿</text>
<text x="499.2" y="332" fill="#ffaf00">⣻⣛</text>
<text x="516.0" y="332" fill="#ffd700">⣾</text>
<text x="524.4" y="332" fill="#ffaf00">⣽</text>
<text x="532.8" y="332" fill="#ff8700">⣷</text>
<text x="541.2" y="332" fill="#ffaf00">⣧⢤</text>
<text x="558.0" y="332" fill="#ffd700">⠀</text>
<text x="566.4" y="332" fill="#c9d1d9">                                                                         </text>
<rect x="12.0" y="336" width="260.9" height="18" fill="#0087ff"/>
<rect x="272.4" y="336" width="84.5" height="18" fill="#005fff"/>
<rect x="356.4" y="336" width="109.7" height="18" fill="#0087ff"/>
<rect x="482.4" y="336" width="101.3" height="18" fill="#0087ff"/>
<rect x="583.2" y="336" width="34.1" height="18" fill="#005fff"/>
<rect x="616.8" y="336" width="563.3" height="18" fill="#0087ff"/>
<text x="12.0" y="350" fill="#c9d1d9">                                                      </text>
<text x="465.6" y="350" fill="#ffffff" font-weight="bold">|</text>
<text x="474.0" y="350" fill="#ffd700">\</text>
<text x="482.4" y="350" fill="#c9d1d9">                                                                                   </text>
<rect x="12.0" y="354" width="50.9" height="18" fill="#005fff"/>
<rect x="62.4" y="354" width="168.5" height="18" fill="#0087ff"/>
<rect x="230.4" y="354" width="134.9" height="18" fill="#005fff"/>
<rect x="608.4" y="354" width="151.7" height="18" fill="#005fff"/>
<rect x="759.6" y="354" width="160.1" height="18" fill="#0087ff"/>
<rect x="919.2" y="354" width="151.7" height="18" fill="#005fff"/>
<rect x="1070.4" y="354" width="59.3" height="18" fill="#0087ff"/>
<rect x="1129.2" y="354" width="50.9" height="18" fill="#005fff"/>
<text x="12.0" y="368" fill="#c9d1d9">                                          </text>
<text x="364.8" y="368" fill="#ffd700">___________</text>
<text x="457.2" y="368" fill="#ffffff" font-weight="bold">|</text>
<text x="465.6" y="368" fill="#ffd700">_________________</text>
<text x="608.4" y="368" fill="#c9d1d9">                                                                    </text>
<rect x="12.0" y="372" width="25.7" height="18" fill="#005fd7"/>
<rect x="37.2" y="372" width="218.9" height="18" fill="#005fff"/>
<rect x="255.6" y="372" width="109.7" height="18" fill="#005fd7"/>
<rect x="373.2" y="372" width="76.1" height="18" fill="#005fd7"/>
<rect x="448.8" y="372" width="17.3" height="18" fill="#005fff"/>
<rect x="474.0" y="372" width="84.5" height="18" fill="#005fff"/>
<rect x="558.0" y="372" width="42.5" height="18" fill="#005fd7"/>
<rect x="608.4" y="372" width="126.5" height="18" fill="#005fd7"/>
<rect x="734.4" y="372" width="235.7" height="18" fill="#005fff"/>
<rect x="969.6" y="372" width="67.7" height="18" fill="#005fd7"/>
<rect x="1036.8" y="372" width="143.3" height="18" fill="#005fff"/>
<text x="12.0" y="386" fill="#c9d1d9">                                          </text>
<text x="364.8" y="386" fill="#ffffff" font-weight="bold">|</text>
<text x="373.2" y="386" fill="#c9d1d9">           </text>
<text x="465.6" y="386" fill="#ff5fd7">♪</text>
<text x="474.0" y="386" fill="#c9d1d9">               </text>
<text x="600.0" y="386" fill="#ffffff" font-weight="bold">|</text>
<text x="608.4" y="386" fill="#c9d1d9">                                                                    </text>
<rect x="12.0" y="390" width="277.7" height="18" fill="#005fd7"/>
<rect x="289.2" y="390" width="50.9" height="18" fill="#0000d7"/>
<rect x="339.6" y="390" width="25.7" height="18" fill="#005fd7"/>
<rect x="373.2" y="390" width="92.9" height="18" fill="#005fd7"/>
<rect x="474.0" y="390" width="126.5" height="18" fill="#005fd7"/>
<rect x="608.4" y="390" width="168.5" height="18" fill="#005fd7"/>
<rect x="776.4" y="390" width="67.7" height="18" fill="#005fff"/>
<rect x="843.6" y="390" width="336.5" height="18" fill="#005fd7"/>
<text x="12.0" y="404" fill="#c9d1d9">                                          </text>
<text x="364.8" y="404" fill="#ffffff" font-weight="bold">|</text>
<text x="373.2" y="404" fill="#c9d1d9">           </text>
<text x="465.6" y="404" fill="#ff5fd7">♪</text>
<text x="474.0" y="404" fill="#c9d1d9">               </text>
<text x="600.0" y="404" fill="#ffffff" font-weight="bold">|</text>
<text x="608.4" y="404" fill="#c9d1d9">                                                                    </text>
<rect x="12.0" y="408" width="42.5" height="18" fill="#0000d7"/>
<rect x="54.0" y="408" width="185.3" height="18" fill="#005fd7"/>
<rect x="238.8" y="408" width="126.5" height="18" fill="#0000d7"/>
<rect x="373.2" y="408" width="92.9" height="18" fill="#0000d7"/>
<rect x="474.0" y="408" width="59.3" height="18" fill="#005fd7"/>
<rect x="532.8" y="408" width="67.7" height="18" fill="#0000d7"/>
<rect x="608.4" y="408" width="143.3" height="18" fill="#0000d7"/>
<rect x="751.2" y="408" width="193.7" height="18" fill="#005fd7"/>
<rect x="944.4" y="408" width="118.1" height="18" fill="#0000d7"/>
<rect x="1062.0" y="408" width="118.1" height="18" fill="#005fd7"/>
<text x="12.0" y="422" fill="#c9d1d9">                                          </text>
<text x="364.8" y="422" fill="#ffffff" font-weight="bold">|</text>
<text x="373.2" y="422" fill="#c9d1d9">           </text>
<text x="465.6" y="422" fill="#ff00d7">♫</text>
<text x="474.0" y="422" fill="#c9d1d9">               </text>
<text x="600.0" y="422" fill="#ffffff" font-weight="bold">|</text>
<text x="608.4" y="422" fill="#c9d1d9">                                                                    </text>
<rect x="12.0" y="426" width="8.9" height="18" fill="#0000af"/>
<rect x="20.4" y="426" width="244.1" height="18" fill="#0000d7"/>
<rect x="264.0" y="426" width="101.3" height="18" fill="#0000af"/>
<rect x="608.4" y="426" width="109.7" height="18" fill="#0000af"/>
<rect x="717.6" y="426" width="260.9" height="18" fill="#0000d7"/>
<rect x="978.0" y="426" width="50.9" height="18" fill="#0000af"/>
<rect x="1028.4" y="426" width="151.7" height="18" fill="#0000d7"/>
<text x="12.0" y="440" fill="#c9d1d9">                                          </text>
<text x="364.8" y="440" fill="#ffffff" font-weight="bold">|</text>
<text x="373.2" y="440" fill="#ffd700">___________________________</text>
<text x="600.0" y="440" fill="#ffffff" font-weight="bold">|</text>
<text x="608.4" y="440" fill="#c9d1d9">                                                                    </text>
<rect x="12.0" y="444" width="67.7" height="18" fill="#0000af"/>
<rect x="79.2" y="444" width="143.3" height="18" fill="#0000d7"/>
<rect x="222.0" y="444" width="84.5" height="18" fill="#0000af"/>
<rect x="306.0" y="444" width="8.9" height="18" fill="#000087"/>
<rect x="314.4" y="444" width="143.3" height="18" fill="#0000af"/>
<rect x="482.4" y="444" width="286.1" height="18" fill="#0000af"/>
<rect x="768.0" y="444" width="92.9" height="18" fill="#0000d7"/>
<rect x="860.4" y="444" width="319.7" height="18" fill="#0000af"/>
<text x="12.0" y="458" fill="#c9d1d9">                                                     </text>
<text x="457.2" y="458" fill="#ffffff" font-weight="bold">≡</text>
<text x="465.6" y="458" fill="#ffffaf" font-weight="bold">O</text>
<text x="474.0" y="458" fill="#ffffff" font-weight="bold">≡</text>
<text x="482.4" y="458" fill="#c9d1d9">                                                                                   </text>
<rect x="12.0" y="462" width="34.1" height="18" fill="#000087"/>
<rect x="45.6" y="462" width="202.1" height="18" fill="#0000af"/>
<rect x="247.2" y="462" width="76.1" height="18" fill="#000087"/>
<rect x="583.2" y="462" width="160.1" height="18" fill="#000087"/>
<rect x="742.8" y="462" width="210.5" height="18" fill="#0000af"/>
<rect x="952.8" y="462" width="101.3" height="18" fill="#000087"/>
<rect x="1053.6" y="462" width="126.5" height="18" fill="#0000af"/>
<text x="12.0" y="476" fill="#c9d1d9">                                     </text>
<text x="322.8" y="476" fill="#ffd700">\___</text>
<text x="356.4" y="476" fill="#ffffff" font-weight="bold">o</text>
<text x="364.8" y="476" fill="#ffd700">___</text>
<text x="390.0" y="476" fill="#ffffff" font-weight="bold">o</text>
<text x="398.4" y="476" fill="#ffd700">___</text>
<text x="423.6" y="476" fill="#ffffff" font-weight="bold">o</text>
<text x="432.0" y="476" fill="#ffd700">___</text>
<text x="457.2" y="476" fill="#ffffff" font-weight="bold">o</text>
<text x="465.6" y="476" fill="#ffd700">___</text>
<text x="490.8" y="476" fill="#ffffff" font-weight="bold">o</text>
<text x="499.2" y="476" fill="#ffd700">___</text>
<text x="524.4" y="476" fill="#ffffff" font-weight="bold">o</text>
<text x="532.8" y="476" fill="#ffd700">_____/</text>
<text x="583.2" y="476" fill="#c9d1d9">                                                                       </text>
<rect x="12.0" y="480" width="319.7" height="18" fill="#000087"/>
<rect x="574.8" y="480" width="210.5" height="18" fill="#000087"/>
<rect x="784.8" y="480" width="42.5" height="18" fill="#0000af"/>
<rect x="826.8" y="480" width="353.3" height="18" fill="#000087"/>
<text x="12.0" y="494" fill="#c9d1d9">                                      </text>
<text x="331.2" y="494" fill="#ffd700">\___________________________/</text>
<text x="574.8" y="494" fill="#c9d1d9">                                                                        </text>
<rect x="12.0" y="498" width="344.9" height="18" fill="#000087"/>
<rect x="364.8" y="498" width="25.7" height="18" fill="#00005f"/>
<rect x="398.4" y="498" width="25.7" height="18" fill="#00005f"/>
<rect x="432.0" y="498" width="25.7" height="18" fill="#00005f"/>
<rect x="465.6" y="498" width="25.7" height="18" fill="#00005f"/>
<rect x="499.2" y="498" width="25.7" height="18" fill="#00005f"/>
<rect x="532.8" y="498" width="647.3" height="18" fill="#000087"/>
<text x="12.0" y="512" fill="#c9d1d9">                                         </text>
<text x="356.4" y="512" fill="#ffd700">\</text>
<text x="364.8" y="512" fill="#c9d1d9">   </text>
<text x="390.0" y="512" fill="#ffd700">\</text>
<text x="398.4" y="512" fill="#c9d1d9">   </text>
<text x="423.6" y="512" fill="#ffd700">\</text>
<text x="432.0" y="512" fill="#c9d1d9">   </text>
<text x="457.2" y="512" fill="#ffd700">\</text>
<text x="465.6" y="512" fill="#c9d1d9">   </text>
<text x="490.8" y="512" fill="#ffd700">\</text>
<text x="499.2" y="512" fill="#c9d1d9">   </text>
<text x="524.4" y="512" fill="#ffd700">\</text>
<text x="532.8" y="512" fill="#c9d1d9">                                                                             </text>
<rect x="12.0" y="516" width="25.7" height="18" fill="#00005f"/>
<rect x="37.2" y="516" width="218.9" height="18" fill="#000087"/>
<rect x="255.6" y="516" width="193.7" height="18" fill="#00005f"/>
<rect x="448.8" y="516" width="109.7" height="18" fill="#000087"/>
<rect x="558.0" y="516" width="176.9" height="18" fill="#00005f"/>
<rect x="734.4" y="516" width="235.7" height="18" fill="#000087"/>
<rect x="969.6" y="516" width="67.7" height="18" fill="#00005f"/>
<rect x="1036.8" y="516" width="143.3" height="18" fill="#000087"/>
<text x="12.0" y="530" fill="#c9d1d9">                                                                                                                                           </text>
<rect x="12.0" y="534" width="764.9" height="18" fill="#00005f"/>
<rect x="776.4" y="534" width="67.7" height="18" fill="#000087"/>
<rect x="843.6" y="534" width="336.5" height="18" fill="#00005f"/>
<text x="12.0" y="548" fill="#c9d1d9">                                                                                                                                           </text>
<rect x="12.0" y="552" width="1168.1" height="18" fill="#00005f"/>
<text x="12.0" y="566" fill="#c9d1d9">                                                                                                                                           </text>
<rect x="12.0" y="570" width="1168.1" height="18" fill="#00005f"/>
<text x="12.0" y="584" fill="#c9d1d9">                                                                                                                                           </text>
<rect x="12.0" y="588" width="1168.1" height="18" fill="#00005f"/>
<text x="12.0" y="602" fill="#c9d1d9">                                                                                                                                           </text>
<rect x="12.0" y="606" width="1168.1" height="18" fill="#00005f"/>
<text x="12.0" y="620" fill="#c9d1d9">                                                                                                                                           </text>
<rect x="12.0" y="624" width="1168.1" height="18" fill="#00005f"/>
<text x="12.0" y="638" fill="#c9d1d9">                                                                                                                                           </text>
<rect x="12.0" y="642" width="1168.1" height="18" fill="#00005f"/>
<text x="12.0" y="656" fill="#c9d1d9">                                                                                                                                           </text>
<rect x="12.0" y="660" width="1168.1" height="18" fill="#00005f"/>
<text x="12.0" y="674" fill="#c9d1d9">                                                                                                                                           </text>
<rect x="12.0" y="678" width="1168.1" height="18" fill="#00005f"/>
<text x="12.0" y="692" fill="#c9d1d9">                                                                                                                                           </text>
<rect x="12.0" y="696" width="8.9" height="18" fill="#00005f"/>
<rect x="616.8" y="696" width="563.3" height="18" fill="#00005f"/>
<text x="12.0" y="710" fill="#c9d1d9"> </text>
<text x="20.4" y="710" fill="#5fffff">ropes ●●●  ·  the song 100%  ·  wax in their ears  ·  past the Sirens 0</text>
<text x="616.8" y="710" fill="#c9d1d9">                                                                   </text>
<text x="12.0" y="728" fill="#768390"> sirens  ·  deadviz standalone, the sink here  (v next mode, V previous, 1-9/0 pick, ↑↓ waterfall direction, Esc quits)</text>
</g></svg>