<svg xmlns="http://www.w3.org/2000/svg" width="1334" height="852" viewBox="0 0 1334 852">
<rect width="100%" height="100%" rx="8" fill="#0d1117"/>
<g font-family="DejaVu Sans Mono, Menlo, Consolas, monospace" font-size="14" xml:space="preserve">
<text x="12.0" y="620" fill="#c9d1d9">           </text>
<text x="104.4" y="620" fill="#ff8700">╔═╗</text>
<text x="129.6" y="620" fill="#c9d1d9">                </text>
<text x="264.0" y="620" fill="#ff8700">╔═╗</text>
<text x="289.2" y="620" fill="#c9d1d9">                                                                                           </text>
<text x="1053.6" y="620" fill="#ff8700">╔═╗</text>
<text x="1078.8" y="620" fill="#c9d1d9">                </text>
<text x="1213.2" y="620" fill="#ff8700">╔═╗</text>
<text x="12.0" y="638" fill="#c9d1d9">            </text>
<text x="112.8" y="638" fill="#d78700">║</text>
<text x="121.2" y="638" fill="#c9d1d9">                  </text>
<text x="272.4" y="638" fill="#d78700">║</text>
<text x="280.8" y="638" fill="#c9d1d9">                                                                                             </text>
<text x="1062.0" y="638" fill="#d78700">║</text>
<text x="1070.4" y="638" fill="#c9d1d9">                  </text>
<text x="1221.6" y="638" fill="#d78700">║</text>
<text x="12.0" y="656" fill="#c9d1d9">            </text>
<text x="112.8" y="656" fill="#ff8700">║</text>
<text x="121.2" y="656" fill="#c9d1d9">                  </text>
<text x="272.4" y="656" fill="#ff8700">║</text>
<text x="280.8" y="656" fill="#c9d1d9">                                                                                             </text>
<text x="1062.0" y="656" fill="#ff8700">║</text>
<text x="1070.4" y="656" fill="#c9d1d9">                  </text>
<text x="1221.6" y="656" fill="#ff8700">║</text>
<text x="12.0" y="674" fill="#c9d1d9">            </text>
<text x="112.8" y="674" fill="#d78700">║</text>
<text x="121.2" y="674" fill="#c9d1d9">                  </text>
<text x="272.4" y="674" fill="#d78700">║</text>
<text x="280.8" y="674" fill="#c9d1d9">                                        </text>
<text x="616.8" y="674" fill="#ff8700">▟█▙</text>
<text x="642.0" y="674" fill="#c9d1d9">                                                  </text>
<text x="1062.0" y="674" fill="#d78700">║</text>
<text x="1070.4" y="674" fill="#c9d1d9">                  </text>
<text x="1221.6" y="674" fill="#d78700">║</text>
<text x="12.0" y="692" fill="#c9d1d9">            </text>
<text x="112.8" y="692" fill="#ff8700">║</text>
<text x="121.2" y="692" fill="#c9d1d9">                  </text>
<text x="272.4" y="692" fill="#ff8700">║</text>
<text x="280.8" y="692" fill="#c9d1d9">              </text>
<text x="398.4" y="692" fill="#afffaf" font-weight="bold">.-==-.</text>
<text x="448.8" y="692" fill="#c9d1d9">      </text>
<text x="499.2" y="692" fill="#afffaf" font-weight="bold">.-==-.</text>
<text x="549.6" y="692" fill="#c9d1d9">        </text>
<text x="616.8" y="692" fill="#ff8700">▐◇▌</text>
<text x="642.0" y="692" fill="#c9d1d9">       </text>
<text x="700.8" y="692" fill="#ffff5f" font-weight="bold">▲</text>
<text x="709.2" y="692" fill="#c9d1d9">                 </text>
<text x="852.0" y="692" fill="#afffaf" font-weight="bold">.-==-.</text>
<text x="902.4" y="692" fill="#c9d1d9">       </text>
<text x="961.2" y="692" fill="#afffaf" font-weight="bold">.-==-.</text>
<text x="1011.6" y="692" fill="#c9d1d9">      </text>
<text x="1062.0" y="692" fill="#ff8700">║</text>
<text x="1070.4" y="692" fill="#c9d1d9">                  </text>
<text x="1221.6" y="692" fill="#ff8700">║</text>
<text x="12.0" y="710" fill="#c9d1d9">            </text>
<text x="112.8" y="710" fill="#d78700">║</text>
<text x="121.2" y="710" fill="#c9d1d9">                  </text>
<text x="272.4" y="710" fill="#d78700">║</text>
<text x="280.8" y="710" fill="#c9d1d9">             </text>
<text x="390.0" y="710" fill="#afffaf" font-weight="bold">(</text>
<text x="398.4" y="710" fill="#c9d1d9"> </text>
<text x="406.8" y="710" fill="#87d7ff">O</text>
<text x="415.2" y="710" fill="#c9d1d9">  </text>
<text x="432.0" y="710" fill="#87d7ff">O</text>
<text x="440.4" y="710" fill="#c9d1d9"> </text>
<text x="448.8" y="710" fill="#afffaf" font-weight="bold">)</text>
<text x="457.2" y="710" fill="#c9d1d9">    </text>
<text x="490.8" y="710" fill="#afffaf" font-weight="bold">(</text>
<text x="499.2" y="710" fill="#c9d1d9"> </text>
<text x="507.6" y="710" fill="#87d7ff">O</text>
<text x="516.0" y="710" fill="#c9d1d9">  </text>
<text x="532.8" y="710" fill="#87d7ff">O</text>
<text x="541.2" y="710" fill="#c9d1d9"> </text>
<text x="549.6" y="710" fill="#afffaf" font-weight="bold">)</text>
<text x="558.0" y="710" fill="#c9d1d9">       </text>
<text x="616.8" y="710" fill="#ff8700">▐◇▌</text>
<text x="642.0" y="710" fill="#c9d1d9">       </text>
<text x="700.8" y="710" fill="#ffd700" font-weight="bold">█</text>
<text x="709.2" y="710" fill="#c9d1d9">                </text>
<text x="843.6" y="710" fill="#afffaf" font-weight="bold">(</text>
<text x="852.0" y="710" fill="#c9d1d9"> </text>
<text x="860.4" y="710" fill="#87d7ff">O</text>
<text x="868.8" y="710" fill="#c9d1d9">  </text>
<text x="885.6" y="710" fill="#87d7ff">O</text>
<text x="894.0" y="710" fill="#c9d1d9"> </text>
<text x="902.4" y="710" fill="#afffaf" font-weight="bold">)</text>
<text x="910.8" y="710" fill="#c9d1d9">     </text>
<text x="952.8" y="710" fill="#afffaf" font-weight="bold">(</text>
<text x="961.2" y="710" fill="#c9d1d9"> </text>
<text x="969.6" y="710" fill="#87d7ff">O</text>
<text x="978.0" y="710" fill="#c9d1d9">  </text>
<text x="994.8" y="710" fill="#87d7ff">O</text>
<text x="1003.2" y="710" fill="#c9d1d9"> </text>
<text x="1011.6" y="710" fill="#afffaf" font-weight="bold">)</text>
<text x="1020.0" y="710" fill="#c9d1d9">     </text>
<text x="1062.0" y="710" fill="#d78700">║</text>
<text x="1070.4" y="710" fill="#c9d1d9">                  </text>
<text x="1221.6" y="710" fill="#d78700">║</text>
<text x="12.0" y="728" fill="#c9d1d9">            </text>
<text x="112.8" y="728" fill="#ff8700">║</text>
<text x="121.2" y="728" fill="#c9d1d9">                  </text>
<text x="272.4" y="728" fill="#ff8700">║</text>
<text x="280.8" y="728" fill="#c9d1d9">              </text>
<text x="398.4" y="728" fill="#afffaf" font-weight="bold">\</text>
<text x="406.8" y="728" fill="#c9d1d9"> </text>
<text x="415.2" y="728" fill="#afffaf" font-weight="bold">‾‾</text>
<text x="432.0" y="728" fill="#c9d1d9"> </text>
<text x="440.4" y="728" fill="#afffaf" font-weight="bold">/</text>
<text x="448.8" y="728" fill="#c9d1d9">      </text>
<text x="499.2" y="728" fill="#afffaf" font-weight="bold">\</text>
<text x="507.6" y="728" fill="#c9d1d9"> </text>
<text x="516.0" y="728" fill="#afffaf" font-weight="bold">‾‾</text>
<text x="532.8" y="728" fill="#c9d1d9"> </text>
<text x="541.2" y="728" fill="#afffaf" font-weight="bold">/</text>
<text x="549.6" y="728" fill="#c9d1d9">        </text>
<text x="616.8" y="728" fill="#af00ff" font-weight="bold">▐◆▌</text>
<text x="642.0" y="728" fill="#c9d1d9">       </text>
<text x="700.8" y="728" fill="#ffd700" font-weight="bold">█</text>
<text x="709.2" y="728" fill="#c9d1d9">                 </text>
<text x="852.0" y="728" fill="#afffaf" font-weight="bold">\</text>
<text x="860.4" y="728" fill="#c9d1d9"> </text>
<text x="868.8" y="728" fill="#afffaf" font-weight="bold">‾‾</text>
<text x="885.6" y="728" fill="#c9d1d9"> </text>
<text x="894.0" y="728" fill="#afffaf" font-weight="bold">/</text>
<text x="902.4" y="728" fill="#c9d1d9">       </text>
<text x="961.2" y="728" fill="#afffaf" font-weight="bold">\</text>
<text x="969.6" y="728" fill="#c9d1d9"> </text>
<text x="978.0" y="728" fill="#afffaf" font-weight="bold">‾‾</text>
<text x="994.8" y="728" fill="#c9d1d9"> </text>
<text x="1003.2" y="728" fill="#afffaf" font-weight="bold">/</text>
<text x="1011.6" y="728" fill="#c9d1d9">      </text>
<text x="1062.0" y="728" fill="#ff8700">║</text>
<text x="1070.4" y="728" fill="#c9d1d9">                  </text>
<text x="1221.6" y="728" fill="#ff8700">║</text>
<text x="12.0" y="746" fill="#c9d1d9">            </text>
<text x="112.8" y="746" fill="#d78700">║</text>
<text x="121.2" y="746" fill="#c9d1d9">                  </text>
<text x="272.4" y="746" fill="#d78700">║</text>
<text x="280.8" y="746" fill="#c9d1d9">             </text>
<text x="390.0" y="746" fill="#afffaf" font-weight="bold">_/|</text>
<text x="415.2" y="746" fill="#c9d1d9">  </text>
<text x="432.0" y="746" fill="#afffaf" font-weight="bold">|\_</text>
<text x="457.2" y="746" fill="#c9d1d9">    </text>
<text x="490.8" y="746" fill="#afffaf" font-weight="bold">_/|</text>
<text x="516.0" y="746" fill="#c9d1d9">  </text>
<text x="532.8" y="746" fill="#afffaf" font-weight="bold">|\_</text>
<text x="558.0" y="746" fill="#c9d1d9">       </text>
<text x="616.8" y="746" fill="#ff8700">▐◇▌</text>
<text x="642.0" y="746" fill="#c9d1d9">       </text>
<text x="700.8" y="746" fill="#ffaf00" font-weight="bold">█</text>
<text x="709.2" y="746" fill="#c9d1d9">                </text>
<text x="843.6" y="746" fill="#afffaf" font-weight="bold">_/|</text>
<text x="868.8" y="746" fill="#c9d1d9">  </text>
<text x="885.6" y="746" fill="#afffaf" font-weight="bold">|\_</text>
<text x="910.8" y="746" fill="#c9d1d9">     </text>
<text x="952.8" y="746" fill="#afffaf" font-weight="bold">_/|</text>
<text x="978.0" y="746" fill="#c9d1d9">  </text>
<text x="994.8" y="746" fill="#afffaf" font-weight="bold">|\_</text>
<text x="1020.0" y="746" fill="#c9d1d9">     </text>
<text x="1062.0" y="746" fill="#d78700">║</text>
<text x="1070.4" y="746" fill="#c9d1d9">                  </text>
<text x="1221.6" y="746" fill="#d78700">║</text>
<text x="12.0" y="764" fill="#c9d1d9">            </text>
<text x="112.8" y="764" fill="#ff8700">║</text>
<text x="121.2" y="764" fill="#c9d1d9">                  </text>
<text x="272.4" y="764" fill="#ff8700">║</text>
<text x="280.8" y="764" fill="#c9d1d9">              </text>
<text x="398.4" y="764" fill="#afffaf" font-weight="bold">/</text>
<text x="406.8" y="764" fill="#c9d1d9">    </text>
<text x="440.4" y="764" fill="#afffaf" font-weight="bold">\</text>
<text x="448.8" y="764" fill="#c9d1d9">      </text>
<text x="499.2" y="764" fill="#afffaf" font-weight="bold">/</text>
<text x="507.6" y="764" fill="#c9d1d9">    </text>
<text x="541.2" y="764" fill="#afffaf" font-weight="bold">\</text>
<text x="549.6" y="764" fill="#c9d1d9">        </text>
<text x="616.8" y="764" fill="#ff8700">▐◇▌</text>
<text x="642.0" y="764" fill="#c9d1d9">       </text>
<text x="700.8" y="764" fill="#ffd700">╫</text>
<text x="709.2" y="764" fill="#c9d1d9">                  </text>
<text x="860.4" y="764" fill="#afffaf" font-weight="bold">|</text>
<text x="868.8" y="764" fill="#c9d1d9">  </text>
<text x="885.6" y="764" fill="#afffaf" font-weight="bold">|</text>
<text x="894.0" y="764" fill="#c9d1d9">         </text>
<text x="969.6" y="764" fill="#afffaf" font-weight="bold">|</text>
<text x="978.0" y="764" fill="#c9d1d9">  </text>
<text x="994.8" y="764" fill="#afffaf" font-weight="bold">|</text>
<text x="1003.2" y="764" fill="#c9d1d9">       </text>
<text x="1062.0" y="764" fill="#ff8700">║</text>
<text x="1070.4" y="764" fill="#c9d1d9">                  </text>
<text x="1221.6" y="764" fill="#ff8700">║</text>
<text x="12.0" y="782" fill="#c9d1d9">            </text>
<text x="112.8" y="782" fill="#d78700">║</text>
<text x="121.2" y="782" fill="#c9d1d9">                  </text>
<text x="272.4" y="782" fill="#d78700">║</text>
<text x="280.8" y="782" fill="#c9d1d9">             </text>
<text x="390.0" y="782" fill="#afffaf" font-weight="bold">^</text>
<text x="398.4" y="782" fill="#c9d1d9">      </text>
<text x="448.8" y="782" fill="#afffaf" font-weight="bold">^</text>
<text x="457.2" y="782" fill="#c9d1d9">    </text>
<text x="490.8" y="782" fill="#afffaf" font-weight="bold">^</text>
<text x="499.2" y="782" fill="#c9d1d9">      </text>
<text x="549.6" y="782" fill="#afffaf" font-weight="bold">^</text>
<text x="558.0" y="782" fill="#c9d1d9">       </text>
<text x="616.8" y="782" fill="#ff8700">▐◇▌</text>
<text x="642.0" y="782" fill="#c9d1d9">       </text>
<text x="700.8" y="782" fill="#ffaf00">║</text>
<text x="709.2" y="782" fill="#c9d1d9">                  </text>
<text x="860.4" y="782" fill="#afffaf" font-weight="bold">^</text>
<text x="868.8" y="782" fill="#c9d1d9">  </text>
<text x="885.6" y="782" fill="#afffaf" font-weight="bold">^</text>
<text x="894.0" y="782" fill="#c9d1d9">         </text>
<text x="969.6" y="782" fill="#afffaf" font-weight="bold">^</text>
<text x="978.0" y="782" fill="#c9d1d9">  </text>
<text x="994.8" y="782" fill="#afffaf" font-weight="bold">^</text>
<text x="1003.2" y="782" fill="#c9d1d9">       </text>
<text x="1062.0" y="782" fill="#d78700">║</text>
<text x="1070.4" y="782" fill="#c9d1d9">                  </text>
<text x="1221.6" y="782" fill="#d78700">║</text>
<text x="12.0" y="800" fill="#ff8700">▔▔▔▔▔▔▔▔▔▔▔▔▔▔▔▔▔▔▔▔▔▔▔▔▔▔▔▔▔▔▔▔▔▔▔▔▔▔▔▔▔▔▔▔▔▔▔▔▔▔▔▔▔▔▔▔▔▔▔▔▔▔▔▔▔▔▔▔▔▔▔▔▔▔▔▔▔▔▔▔▔▔▔▔▔▔▔▔▔▔▔▔▔▔▔▔▔▔▔▔▔▔▔▔▔▔▔▔▔▔▔▔▔▔▔▔▔▔▔▔▔▔▔▔▔▔▔▔▔▔▔▔▔▔▔▔▔▔▔▔▔▔▔▔▔▔▔▔▔▔▔▔▔▔▔▔</text>
<text x="12.0" y="818" fill="#c9d1d9"> </text>
<text x="20.4" y="818" fill="#00d700">warmth 100%  ·  4 Sleestak  ·  torch 4</text>
<text x="12.0" y="836" fill="#768390"> sleestak  ·  deadviz standalone  (v next mode, V previous, 1-9/0 pick, Esc quits)</text>
</g></svg>